<?xml version="1.0" encoding="utf-8"?>
<!-- Generator: Adobe Illustrator 27.0.0, SVG Export Plug-In . SVG Version: 6.00 Build 0)  -->
<svg version="1.1" id="Layer_1" xmlns="http://www.w3.org/2000/svg" xmlns:xlink="http://www.w3.org/1999/xlink" x="0px" y="0px"
	 viewBox="0 0 347 79" style="enable-background:new 0 0 347 79;" xml:space="preserve">
<style type="text/css">
	.st0{fill-rule:evenodd;clip-rule:evenodd;}
</style>
<g>
	<path class="st0" d="M90.7,30.1V33c0,0.6,0.5,1,1.1,0.9c10.9-2.4,76.3-17.2,81.7-17.2c5.4,0,70.8,14.9,81.7,17.3
		c0.6,0.1,1.1-0.3,1.1-0.9v-3c0-0.3-0.2-0.6-0.5-0.7L173.5,0L91.3,29.4C91,29.5,90.7,29.8,90.7,30.1"/>
	<g>
		<path id="Combined-Shape" class="st0" d="M345.9,56.6h-44c-0.5,0-0.8,0.4-0.8,0.8v5c0,0.5,0.4,0.8,0.8,0.8h20.2v15.1
			c0,0.5,0.4,0.8,0.8,0.8h1.9c0.5,0,0.8-0.4,0.8-0.8V63.3h20.2c0.5,0,0.8-0.4,0.8-0.8v-5C346.7,57,346.4,56.6,345.9,56.6L345.9,56.6
			z M137.3,57.5v20.9c0,0.5,0.4,0.8,0.8,0.8h5c0.5,0,0.8-0.4,0.8-0.8V57.5c0-0.5-0.4-0.8-0.8-0.8h-5C137.7,56.6,137.3,57,137.3,57.5
			L137.3,57.5z M69.6,75.2c-0.9,0.4-1.4,0.9-1.4,1.9c0,1.2,0.6,2.1,2.2,2.1h43.7c0.5,0,0.8-0.4,0.8-0.8v-1.7c0-0.5-0.4-0.8-0.8-0.8
			H81.4l32.7-14.9c0.9-0.4,1.5-1,1.5-2.2c0-1.2-0.6-2.1-2.2-2.1H70.2c-0.5,0-0.8,0.4-0.8,0.8v1.7c0,0.5,0.4,0.8,0.8,0.8h32.8
			L69.6,75.2z M237.4,57.5v18.3c0,2,1.5,3.4,3.4,3.4h38.8c2,0,3.4-1.5,3.4-3.4V57.5c0-0.5-0.4-0.8-0.8-0.8h-1.9
			c-0.5,0-0.8,0.4-0.8,0.8v13.2c0,1.1-0.8,1.9-1.9,1.9h-34.7c-1.1,0-1.9-0.8-1.9-1.9V57.5c0-0.5-0.4-0.8-0.8-0.8h-1.9
			C237.8,56.6,237.4,57,237.4,57.5L237.4,57.5z M23.7,56.8L0.4,77.5C-0.4,78.2,0,79.2,1,79.2h1.6c0.7,0,1.3-0.2,1.8-0.7l19.2-16.9
			l19,16.9c0.5,0.5,1.1,0.7,1.8,0.7h6.2c1,0,1.4-1.1,0.6-1.7L28.2,56.8c-0.6-0.6-1.4-0.9-2.3-0.9C25.1,55.9,24.3,56.2,23.7,56.8
			L23.7,56.8z M166.4,57.9v20.5c0,0.5,0.4,0.8,0.8,0.8h1.9c0.5,0,0.8-0.4,0.8-0.8V64.5l15.5,10.8c1.9,1.3,4.3,1.3,6.2,0l18-12.5
			v15.6c0,0.5,0.4,0.8,0.8,0.8h5c0.5,0,0.8-0.4,0.8-0.8V57.9c0-1.1-0.9-2-2.1-2c-1.2,0-1.9,0.4-2.5,0.8l-20.5,14.4l-20.5-14.5
			c-0.7-0.5-1.2-0.8-2.3-0.8C167.4,55.9,166.4,56.9,166.4,57.9L166.4,57.9z"/>
	</g>
</g>
</svg>
