<?xml version="1.0" encoding="UTF-8"?>
<svg id="Layer_2" data-name="Layer 2" xmlns="http://www.w3.org/2000/svg" viewBox="0 0 48.81 70.05">
  <g id="Layer_1-2" data-name="Layer 1">
    <g id="CC_Logo_3-line" data-name="CC Logo 3-line">
      <path id="path12" d="M3.61,53.66c.9-.03,1.77,.31,2.42,.93,.08,.07,.08,.19,.01,.27,0,0,0,0-.01,.01l-.78,.81c-.07,.07-.18,.07-.25,0-.37-.33-.85-.51-1.35-.51-1.13,0-2.05,.92-2.05,2.05s.92,2.04,2.05,2.04c.49,0,.96-.17,1.34-.48,.07-.06,.19-.06,.26,0l.78,.82c.07,.08,.07,.19,0,.27-.64,.65-1.52,1.01-2.43,1-1.99,0-3.6-1.61-3.6-3.6s1.61-3.6,3.6-3.6m8,0c-1.99,0-3.6,1.61-3.6,3.6,0,1.99,1.61,3.6,3.6,3.6s3.59-1.61,3.6-3.59c.01-1.98-1.59-3.6-3.57-3.61-.01,0-.02,0-.03,0m0,5.6c-1.1,0-2-.9-2-2s.9-2,2-2,2,.9,2,2-.9,2-2,2m5.67,1.28c-.02,.1,.04,.19,.13,.22,.02,0,.04,0,.06,0h1.18c.09,0,.17-.07,.19-.16l.44-3.09h0l1.69,3.24c.04,.06,.1,.1,.17,.11h.18c.07-.01,.13-.05,.17-.11l1.68-3.24h0l.45,3.09c.02,.09,.1,.15,.19,.16h1.18c.1,0,.19-.07,.19-.16,0-.02,0-.04,0-.06l-1.13-6.72c-.01-.09-.09-.16-.18-.16h-.17c-.07,0-.13,.04-.17,.1l-2.32,4.32h0l-2.32-4.32c-.04-.06-.1-.1-.17-.1h-.16c-.09,0-.17,.07-.18,.16l-1.1,6.72Zm10.52,0c0,.1,.07,.19,.18,.2,0,0,0,0,.01,0h4.14c.11,0,.19-.09,.19-.2v-1.08c0-.1-.09-.18-.19-.19h-2.77v-1.34h2.28c.1,0,.18-.08,.18-.18,0,0,0,0,0-.01v-1.09c0-.1-.08-.18-.18-.19h-2.28v-1.24h2.77c.1,0,.18-.09,.19-.19v-1.1c0-.1-.09-.18-.19-.19h-4.14c-.1,0-.19,.09-.19,.19h0v6.61h0Zm7.16,0c0,.1,.07,.19,.18,.2h2.44c1.93,0,3.5-1.57,3.5-3.5s-1.57-3.5-3.5-3.5h-2.44c-.1,0-.18,.09-.18,.19v6.61Zm1.56-1.28v-4.05h1c1.12,0,2.02,.91,2.02,2.03s-.91,2.02-2.02,2.02h-1Zm8.23,1.28c0,.1,.07,.19,.18,.2,0,0,.01,0,.02,0h1.18c.11,0,.19-.09,.19-.2v-3.18l2.24-3.33c.06-.09,.03-.21-.06-.26-.03-.02-.06-.03-.1-.03h-1.3c-.07,0-.13,.03-.16,.09l-1.39,2.1-1.4-2.05c-.03-.06-.09-.09-.16-.09h-1.29c-.1,0-.19,.09-.19,.19,0,.03,.01,.07,.03,.1l2.2,3.34v3.12Zm.44,9.47c1.9,.1,3.53-1.36,3.63-3.26,.1-1.9-1.36-3.53-3.26-3.63-.12,0-.25,0-.37,0-.87-.01-1.7,.32-2.32,.93-.07,.07-.07,.18,0,.25l.74,.8c.07,.07,.18,.07,.25,0,.36-.3,.82-.46,1.29-.46,1.08,.23,1.77,1.3,1.53,2.38-.17,.77-.77,1.37-1.53,1.53-.47,0-.93-.17-1.29-.48-.06-.07-.16-.07-.23-.01,0,0,0,0-.01,.01l-.74,.77c-.07,.07-.08,.18-.02,.25,0,0,.01,.01,.02,.02,.62,.59,1.46,.91,2.32,.89m-4.72-6.61c0-.1-.07-.18-.17-.19,0,0,0,0-.01,0h-4c-.1,0-.18,.08-.18,.18,0,0,0,0,0,.01v1c0,.1,.08,.18,.18,.18h2.65v1.36h-2.18c-.1,0-.18,.08-.19,.18v1.05c0,.1,.09,.18,.19,.18h2.18v1.19h-2.65c-.09,0-.17,.07-.18,.16,0,0,0,.01,0,.02v1c0,.09,.07,.17,.16,.18,0,0,.01,0,.02,0h4c.09,0,.17-.07,.18-.16,0,0,0-.01,0-.02v-6.32Zm-6.85,0c0-.1-.08-.18-.18-.19h-1.14c-.1,0-.18,.08-.18,.18,0,0,0,0,0,.01v3.57h0l-3.78-3.81h-.27c-.09,0-.17,.07-.18,.16,0,0,0,0,0,.01v6.44c0,.1,.08,.18,.18,.18h1.15c.1,0,.18-.08,.18-.18v-3.39h0l3.82,3.67h.24c.1,0,.17-.07,.18-.17l-.02-6.48Zm-9.51,0c0-.1-.08-.17-.18-.18h-1.15c-.1,0-.17,.08-.18,.18v5.12h-1.37c-.1,0-.18,.08-.18,.18v1c0,.1,.08,.18,.18,.18h4.25c.09,0,.17-.07,.18-.16,0,0,0-.01,0-.02v-1c0-.09-.07-.17-.16-.18,0,0-.01,0-.02,0h-1.37v-5.12Zm-5.13,0c0-.1-.08-.18-.18-.19h-1.14c-.1,0-.18,.09-.19,.19v2.44h-.66l-1.27-2.54c-.03-.06-.09-.09-.15-.09h-1.28c-.1,0-.18,.07-.19,.17,0,.04,0,.08,.03,.11l1.31,2.43c-.82,.29-1.38,1.05-1.41,1.92,0,1.14,.94,2.07,2.08,2.07h2.87c.1,0,.18-.08,.18-.18v-6.33Zm-1.52,3.65v1.49h-1.41c-.4,0-.72-.32-.73-.72,0-.41,.32-.74,.73-.77h1.41Zm-5.14-3.59c.04-.08,.01-.19-.07-.23-.03-.01-.06-.02-.09-.02h-1.05c-.15,0-.29,.09-.35,.23l-.34,.77h-2.6l-.35-.76c-.09-.18-.16-.24-.33-.24h-1.07c-.09,0-.17,.07-.18,.16,0,.03,0,.06,.02,.09l3,6.44c.03,.06,.09,.11,.16,.11h.09c.07,0,.14-.05,.17-.11l3-6.44m-2.47,2.05l-.72,1.58h0l-.73-1.58h1.45Zm-5.74-2.11c0-.1-.07-.18-.17-.19,0,0,0,0-.01,0H.33c-.1,0-.18,.09-.18,.19v1c0,.1,.08,.17,.18,.18H2.61v5.11c0,.1,.08,.17,.18,.18h1.14c.09,0,.17-.07,.18-.16,0,0,0-.01,0-.02v-6.29Zm19.39-15.76c13.16,.02,23.83-10.63,23.85-23.79C47.37,10.7,36.72,.02,23.57,0,14.89-.01,6.89,4.7,2.69,12.29l4.28,2.37C12.05,5.53,23.56,2.24,32.7,7.31c9.13,5.08,12.42,16.59,7.35,25.73-5.08,9.13-16.59,12.42-25.73,7.35-3.15-1.75-5.74-4.37-7.46-7.55l-4.3,2.34c4.17,7.71,12.24,12.5,21,12.48m0-12c4.34,0,8.33-2.39,10.38-6.22l-4.31-2.31c-1.83,3.33-6.01,4.55-9.34,2.73-3.33-1.83-4.55-6.01-2.73-9.34s6.01-4.55,9.34-2.73c1.15,.63,2.1,1.58,2.73,2.73l4.26-2.39c-3.18-5.68-10.35-7.71-16.03-4.53-5.68,3.18-7.71,10.35-4.53,16.03,2.08,3.72,6.02,6.03,10.28,6.03"/>
    </g>
  </g>
</svg>