<?xml version="1.0" encoding="UTF-8"?>
<svg id="Layer_2" data-name="Layer 2" xmlns="http://www.w3.org/2000/svg" viewBox="0 0 314.19 77.21">
  <g id="logo-svg">
    <path d="M314.19,58.47c0-10.47-5.3-14.14-14.38-16.47-5-1.3-9.08-2.24-13.32-2.95-3.18-.59-3.65-1.41-3.65-3.3,0-2.83,3.07-3.3,4.83-3.3,3.65,0,6.13,1.3,6.37,5.54l18.85-.38c-.7-12.26-10.37-17.22-26.29-17.22-11,0-24.4,4.24-24.4,17.57-.01,9.04,5.54,14.38,20.99,17.09,9,1.53,10,1.89,10,5.54,0,3.18-2.83,3.89-5.54,3.89-4,0-6.84-2.71-7.07-7l-18.85,.52c.59,11.2,7.78,19.1,26.41,19.1,11.67,0,26.05-3.89,26.05-18.63m-53.87,17.69V21.57h-20.87v31.83c.11,2.15-.13,4.3-.71,6.37-.94,2.59-2.95,5-5.89,5-6.37,0-6.13-5.54-6.13-10.73V21.57h-20.87V56.35c0,11.32,6.13,20.75,19.92,20.75,4.6,0,9.31-.59,14.15-4h.27v3.07h20.13Zm-57.29,0V39.37c0-12.61-9.55-19-19.57-19s-14.74,3.42-18,5.9h-.27c-2.48-3.18-8.25-5.9-13.56-5.9-6.06-.05-11.95,2.04-16.62,5.9h-.24v-4.7h-20.39v54.59h21V43.74c-.07-2.03,.21-4.06,.82-6,.94-2.59,2.95-4.72,5.89-4.72,5.19,0,6.13,3.3,6.13,9.08v34.06h20.97V43c-.47-4,1.89-9.9,6.6-9.9,5.89,0,6.37,5.54,6.37,9v34.06h20.87Zm-110.23-27.35c0,12.61-2.12,16-7.9,16s-7.9-3.42-7.9-16,2.12-16.15,7.9-16.15,7.9,3.54,7.9,16.15m20.16,0c0-8.61-1.3-15.09-5.31-19.8-5.07-6-12.38-8.61-22.75-8.61s-17.71,2.6-22.71,8.6c-4,4.72-5.31,11.2-5.31,19.8s1.3,15,5.31,19.69c5.07,6,12.38,8.61,22.75,8.61s17.68-2.59,22.75-8.61c4-4.72,5.31-11.08,5.31-19.69m-78.39,1.89c0,4.6-.24,8-.94,10.26-.67,2.27-2.82,3.78-5.19,3.65-6.48,0-6.72-9.19-6.72-15v-1.5c0-5.78,.24-15.09,6.72-15.09,2.39-.09,4.53,1.47,5.19,3.77,.71,2.24,.94,5.66,.94,10.26v3.65Zm20.58,25.47V0h-20.63V25.11h-.12c-1.53-2.24-7.66-4.72-13.44-4.72C2,20.39,0,37.6,0,48.8s1.89,28.41,21,28.41c6,0,12-2.95,13.44-5.31h.12v4.24l20.63,.02Z"/>
  </g>
</svg>