<svg width="690" height="102" viewBox="0 0 690 102" fill="none" xmlns="http://www.w3.org/2000/svg">
<g clip-path="url(#clip0_64_225)">
<path d="M81.4 78.4699C83.09 79.4699 83.94 80.6299 83.94 81.9499C83.94 82.8299 83.56 83.7699 82.81 84.7699C74.41 96.1799 62 101.88 45.59 101.88C33.18 101.88 22.48 97.3699 13.49 88.3399C4.5 79.3199 0 67.3499 0 52.4299C0 37.5099 4.5 25.1299 13.49 15.4399C22.48 5.75992 33.87 0.919922 47.66 0.919922C59 0.919922 68.5 4.12992 76.14 10.5599C83.79 16.9799 87.61 24.8599 87.61 34.1999C87.61 41.9099 84.93 48.2699 79.57 53.2799C74.21 58.2899 66.68 60.7999 56.96 60.7999C52.2 60.7999 48.31 60.1999 45.3 59.0099C42.04 57.6899 40.41 55.7799 40.41 53.2799V45.0999C40.41 41.8999 41.73 40.3099 44.36 40.3099C45.49 40.3099 46.87 40.5899 48.5 41.1599C51.01 42.0399 53.64 42.4799 56.4 42.4799C63.54 42.4799 67.12 39.5299 67.12 33.6399C67.12 29.3799 65.24 25.9199 61.48 23.2499C57.72 20.5899 53.02 19.2499 47.38 19.2499C39.05 19.2499 32.48 22.3099 27.69 28.4199C22.9 34.5299 20.5 42.4399 20.5 52.1599C20.5 61.8799 22.9 69.2499 27.69 74.8599C32.48 80.4699 38.73 83.2699 46.44 83.2699C54.15 83.2699 60.85 80.2599 65.8 74.2499C67.05 72.7499 68.31 71.9899 69.56 71.9899C70.25 71.9899 70.91 72.1799 71.53 72.5499L81.4 78.4699Z" fill="black"/>
<path d="M183.39 3.26992C184.52 3.26992 185.33 3.64992 185.83 4.39992C186.33 5.14992 186.58 5.80992 186.58 6.36992C186.58 6.80992 186.45 7.27992 186.2 7.77992L143.24 99.9899C142.61 101.24 141.61 101.87 140.23 101.87H135.91C134.59 101.87 133.65 101.24 133.09 99.9899L90.05 7.77992C89.8 7.27992 89.67 6.80992 89.67 6.36992C89.67 5.80992 89.92 5.14992 90.42 4.39992C90.92 3.64992 91.77 3.26992 92.96 3.26992H108.47C109.85 3.26992 110.82 3.89992 111.38 5.14992L137.98 63.5199L164.88 5.14992C165.44 3.89992 166.41 3.26992 167.79 3.26992H183.39Z" fill="black"/>
<path d="M265.93 78.4699C267.62 79.4699 268.47 80.6299 268.47 81.9499C268.47 82.8299 268.09 83.7699 267.34 84.7699C258.94 96.1799 246.53 101.88 230.12 101.88C217.71 101.88 207.01 97.3699 198.02 88.3399C189.03 79.3199 184.53 67.3499 184.53 52.4299C184.53 37.5099 189.03 25.1199 198.02 15.4399C207 5.75992 218.39 0.919922 232.18 0.919922C243.52 0.919922 253.02 4.12992 260.66 10.5599C268.31 16.9799 272.13 24.8599 272.13 34.1999C272.13 41.9099 269.45 48.2699 264.09 53.2799C258.73 58.2899 251.2 60.7999 241.48 60.7999C236.72 60.7999 232.83 60.1999 229.82 59.0099C226.56 57.6899 224.93 55.7799 224.93 53.2799V45.0999C224.93 41.8999 226.25 40.3099 228.88 40.3099C230.01 40.3099 231.39 40.5899 233.02 41.1599C235.53 42.0399 238.16 42.4799 240.92 42.4799C248.06 42.4799 251.64 39.5299 251.64 33.6399C251.64 29.3799 249.76 25.9199 246 23.2499C242.24 20.5899 237.54 19.2499 231.9 19.2499C223.57 19.2499 217 22.3099 212.21 28.4199C207.42 34.5299 205.02 42.4399 205.02 52.1599C205.02 61.8799 207.42 69.2499 212.21 74.8599C217 80.4699 223.25 83.2699 230.96 83.2699C238.67 83.2699 245.37 80.2599 250.32 74.2499C251.57 72.7499 252.83 71.9899 254.08 71.9899C254.77 71.9899 255.43 72.1799 256.05 72.5499L265.92 78.4699H265.93Z" fill="black"/>
<path d="M296.38 3.07992C297.63 3.07992 298.57 3.60992 299.2 4.67992L302.4 10.3199C307.73 4.04992 315.18 0.919922 324.77 0.919922C329.47 0.919922 333.86 1.70992 337.93 3.26992C339.43 3.82992 340.19 4.83992 340.19 6.27992C340.19 6.71992 340.13 7.15992 340 7.59992L337.65 18.1299C337.27 19.9499 336.43 20.8599 335.11 20.8599C334.73 20.8599 334.3 20.7699 333.79 20.5799C330.84 19.6399 327.74 19.1699 324.48 19.1699C310.44 19.1699 303.42 27.5399 303.42 44.2699V96.3499C303.42 97.2299 303.12 97.9799 302.53 98.6099C301.93 99.2399 301.2 99.5499 300.32 99.5499H286.22C285.34 99.5499 284.59 99.2399 283.96 98.6099C283.33 97.9899 283.02 97.2299 283.02 96.3499V6.36992C283.02 5.48992 283.33 4.72992 283.96 4.06992C284.59 3.40992 285.34 3.07992 286.22 3.07992H296.37H296.38Z" fill="black"/>
<path d="M397.34 28.8399C396.52 29.3399 395.77 29.5899 395.08 29.5899C393.89 29.5899 392.82 28.9299 391.88 27.6199C387.87 22.1099 382.98 19.3499 377.22 19.3499C374.02 19.3499 371.41 20.2399 369.37 22.0299C367.33 23.8199 366.32 26.0299 366.32 28.6599C366.32 32.3599 368.26 35.1199 372.15 36.9299L392.08 46.2399C404.17 51.8799 410.22 60.4299 410.22 71.8999C410.22 80.1099 407.17 87.1599 401.05 93.0499C394.94 98.9399 386.5 101.89 375.72 101.89C363 101.89 352.47 95.8699 344.14 83.8399C343.51 82.9599 343.2 82.1499 343.2 81.3999C343.2 80.2699 343.79 79.2399 344.99 78.2999L353.54 71.2499C354.42 70.5599 355.23 70.2199 355.98 70.2199C357.11 70.2199 358.14 70.9399 359.08 72.3799C364.16 79.9599 369.73 83.7499 375.81 83.7499C380.7 83.7499 384.3 82.6699 386.62 80.5099C388.94 78.3499 390.1 75.8299 390.1 72.9399C390.1 68.8699 387.53 65.6099 382.39 63.1599L361.71 53.3799C351.37 48.4899 346.2 40.5002 346.2 29.1299C346.2 20.3599 349.24 13.4599 355.32 8.44992C361.4 3.43992 368.92 0.929924 377.88 0.929924C391.17 0.929924 400.97 6.28992 407.3 16.9999C407.99 18.1299 408.33 19.1299 408.33 20.0099C408.33 21.1999 407.73 22.1699 406.54 22.9199L397.33 28.8399H397.34Z" fill="black"/>
<path d="M498.48 78.4699C500.17 79.4699 501.02 80.6299 501.02 81.9499C501.02 82.8299 500.64 83.7699 499.89 84.7699C491.49 96.1799 479.08 101.88 462.67 101.88C450.26 101.88 439.56 97.3699 430.57 88.3399C421.58 79.3199 417.08 67.3499 417.08 52.4299C417.08 37.5099 421.58 25.1199 430.57 15.4399C439.56 5.75992 450.95 0.919922 464.74 0.919922C476.08 0.919922 485.58 4.12992 493.22 10.5599C500.86 16.9799 504.69 24.8599 504.69 34.1999C504.69 41.9099 502.01 48.2699 496.65 53.2799C491.29 58.2899 483.76 60.7999 474.04 60.7999C469.28 60.7999 465.39 60.1999 462.38 59.0099C459.12 57.6899 457.49 55.7799 457.49 53.2799V45.0999C457.49 41.8999 458.81 40.3099 461.44 40.3099C462.57 40.3099 463.95 40.5899 465.58 41.1599C468.09 42.0399 470.72 42.4799 473.48 42.4799C480.62 42.4799 484.2 39.5299 484.2 33.6399C484.2 29.3799 482.32 25.9199 478.56 23.2499C474.8 20.5899 470.1 19.2499 464.46 19.2499C456.13 19.2499 449.56 22.3099 444.77 28.4199C439.98 34.5299 437.58 42.4399 437.58 52.1599C437.58 61.8799 439.98 69.2499 444.77 74.8599C449.56 80.4699 455.81 83.2699 463.52 83.2699C471.23 83.2699 477.93 80.2599 482.88 74.2499C484.13 72.7499 485.39 71.9899 486.64 71.9899C487.33 71.9899 487.99 72.1799 488.61 72.5499L498.48 78.4699Z" fill="black"/>
<path d="M592.86 78.4699C594.55 79.4699 595.4 80.6299 595.4 81.9499C595.4 82.8299 595.02 83.7699 594.27 84.7699C585.87 96.1799 573.46 101.88 557.05 101.88C544.64 101.88 533.94 97.3699 524.95 88.3399C515.96 79.3199 511.46 67.3499 511.46 52.4299C511.46 37.5099 515.96 25.1199 524.95 15.4399C533.94 5.75992 545.33 0.919922 559.12 0.919922C570.46 0.919922 579.96 4.12992 587.6 10.5599C595.24 16.9799 599.07 24.8599 599.07 34.1999C599.07 41.9099 596.39 48.2699 591.03 53.2799C585.67 58.2899 578.14 60.7999 568.42 60.7999C563.66 60.7999 559.77 60.1999 556.76 59.0099C553.5 57.6899 551.87 55.7799 551.87 53.2799V45.0999C551.87 41.8999 553.19 40.3099 555.82 40.3099C556.95 40.3099 558.33 40.5899 559.96 41.1599C562.47 42.0399 565.1 42.4799 567.86 42.4799C575 42.4799 578.58 39.5299 578.58 33.6399C578.58 29.3799 576.7 25.9199 572.94 23.2499C569.18 20.5899 564.48 19.2499 558.84 19.2499C550.51 19.2499 543.94 22.3099 539.15 28.4199C534.36 34.5299 531.96 42.4399 531.96 52.1599C531.96 61.8799 534.36 69.2499 539.15 74.8599C543.94 80.4699 550.19 83.2699 557.9 83.2699C565.61 83.2699 572.31 80.2599 577.26 74.2499C578.51 72.7499 579.77 71.9899 581.02 71.9899C581.71 71.9899 582.37 72.1799 582.99 72.5499L592.86 78.4699Z" fill="black"/>
<path d="M652.17 0.919922C657.62 0.919922 662.62 1.60992 667.16 2.98992C671.7 4.36992 675.63 6.58992 678.96 9.65992C682.28 12.7299 684.87 16.6999 686.72 21.5499C688.57 26.4099 689.49 32.3099 689.49 39.2699V96.3299C689.49 97.2099 689.18 97.9599 688.55 98.5899C687.92 99.2199 687.17 99.5299 686.29 99.5299H672.19C671.31 99.5299 670.56 99.2199 669.93 98.5899C669.3 97.9699 668.99 97.2099 668.99 96.3299V38.7099C668.99 32.4399 667.27 27.6299 663.82 24.2799C660.37 20.9299 655.58 19.2499 649.44 19.2499C643.3 19.2499 638.36 20.9599 635.2 24.3699C632.03 27.7899 630.45 32.2199 630.45 37.6699V96.3299C630.45 97.2099 630.14 97.9599 629.51 98.5899C628.88 99.2199 628.13 99.5299 627.25 99.5299H613.15C612.27 99.5299 611.52 99.2199 610.89 98.5899C610.26 97.9699 609.95 97.2099 609.95 96.3299V6.27992C609.95 5.39992 610.26 4.64992 610.89 4.01992C611.52 3.38992 612.27 3.07992 613.15 3.07992H623.3C624.55 3.07992 625.49 3.60992 626.12 4.67992L628.85 9.28992C632.05 6.65992 635.6 4.60992 639.52 3.12992C643.44 1.65992 647.65 0.919922 652.16 0.919922L652.17 0.919922Z" fill="black"/>
</g>
<defs>
<clipPath id="clip0_64_225">
<rect width="689.49" height="100.96" fill="white" transform="translate(0 0.919922)"/>
</clipPath>
</defs>
</svg>
