<?xml version="1.0" encoding="UTF-8"?>
<svg id="Layer_2" data-name="Layer 2" xmlns="http://www.w3.org/2000/svg" viewBox="0 0 816.9 500.01">
  <g id="Livello_1" data-name="Livello 1">
    <path d="M95.1,103.21C32.1,110.11,0,148.01,0,193.31c0,37.3,27.1,72.6,77.8,82.2l61.1,12c22.4,4.4,33.8,9.4,33.8,21.6,0,9.3-8.6,19-37.5,19-26,0-61.1-3.9-83.4-3.9s-44.2,9.3-44.2,51.6c.1,5.7,.8,11.3,1.9,16.9,32.1,3.7,99.5,9.6,146.1,4.5,64.8-7.2,96-42.2,96-90.8,0-41.8-25.8-75.9-85.6-86.9l-58-10.8c-18.6-3.2-30.4-7.6-30.4-18.2s12.2-18.1,41.8-18.1,54.8,3,71.3,3c21.6,0,43.8-9.1,43.8-51.3,0-5.5-.6-11.1-1.7-16.5-31.7-4.1-63.6-6.3-95.6-6.6-14-.1-28.1,.6-42,2.1m362.4,32.6l-97.7,106.8,78.5,123.6c14.4,22.5,33.5,34,64.8,34,15.4,.2,30.8-2.6,45.1-8.4l-94.7-142.4,67-71,109.9,172.7-66.8,140.9c11.8,5.2,24.6,8,37.5,8.1h2.5c27.9,0,43.2-11.4,54.9-37.1L816.9,110.21c-10.3-4.6-21.4-7.2-32.7-7.6-20.4-.4-47.7,3.7-64.8,45.3l-51.7,120.9-100.8-163.5c-10.9-2.9-22.1-4.6-33.4-5-35.6,0-55.3,13.1-75.9,35.4M277.2,53.51V398.11c6,.9,12.1,1.3,18.2,1.3,50.4,0,60.9-15,60.9-41V1.91c-6.3-1.3-12.7-2-19.1-1.9-51.2-.1-60,27.3-60,53.5"/>
  </g>
</svg>