<?xml version="1.0" encoding="UTF-8"?>
<svg id="Layer_2" data-name="Layer 2" xmlns="http://www.w3.org/2000/svg" viewBox="0 0 460.05 149.68">
  <defs>
    <style>
      .cls-1 {
        fill: #020101;
      }
    </style>
  </defs>
  <g id="Layer_1-2" data-name="Layer 1">
    <path class="cls-1" d="M291.06,0h-122.06c-7.71,0-13.97,6.24-14,13.95v121.78c.03,7.71,6.29,13.95,14,13.95h122.06c7.69-.03,13.91-6.26,13.94-13.95V13.95c-.03-7.69-6.25-13.92-13.94-13.95Zm-37.38,140.53c0,2.58-1.08,4.27-3.53,4.27h-39.39c-2.44,0-3.52-1.69-3.52-4.27v-39.2c0-1.62,1.31-2.92,2.93-2.93h40.58c1.62,0,2.92,1.31,2.93,2.93v39.2Zm0-91.69c0,1.62-1.31,2.92-2.93,2.93h-40.58c-1.62,0-2.92-1.31-2.93-2.93V9.15c0-2.58,1.08-4.26,3.52-4.26h39.39c2.45,0,3.53,1.68,3.53,4.26V48.84Z"/>
    <path class="cls-1" d="M446.05,0h-121.69c-7.69,.03-13.92,6.26-13.95,13.95v121.78c.03,7.69,6.26,13.92,13.95,13.95h121.69c7.71,0,13.97-6.24,14-13.95V13.95c-.03-7.71-6.29-13.95-14-13.95Zm-84.71,140.53c0,2.58-1.08,4.27-3.52,4.27h-31c-8.15,0-11.51-5.16-11.51-11.52V55.84c0-2.58,1.08-4.27,3.53-4.27h39.64c1.55,.06,2.79,1.29,2.87,2.84v86.12Zm93.76-7.25c0,7.22-4.46,11.52-11.5,11.52h-31.69c-2.44,0-3.53-1.69-3.53-4.27V54.45c.04-1.59,1.3-2.87,2.89-2.93h40.31c2.38,0,3.47,1.61,3.52,4.09v77.67Z"/>
    <path class="cls-1" d="M135.64,0H14C6.29,0,.03,6.24,0,13.95v121.78c.03,7.71,6.29,13.95,14,13.95h121.64c7.69-.03,13.92-6.26,13.95-13.95V13.95c-.03-7.69-6.26-13.92-13.95-13.95ZM50.93,140.53c0,2.58-1.08,4.27-3.53,4.27H16.4c-8.14,0-11.5-5.16-11.5-11.52V55.84c0-2.58,1.08-4.27,3.52-4.27H48.06c1.55,.06,2.8,1.29,2.88,2.84v86.12Zm93.76-7.25c0,7.22-4.46,11.52-11.51,11.52h-31.68c-2.45,0-3.53-1.69-3.53-4.27V54.45c0-1.6,1.28-2.9,2.88-2.93h40.32c2.38,0,3.47,1.61,3.52,4.09v77.67Z"/>
  </g>
</svg>