<?xml version="1.0" encoding="utf-8"?>
<!-- Generator: Adobe Illustrator 27.0.0, SVG Export Plug-In . SVG Version: 6.00 Build 0)  -->
<svg version="1.1" id="Layer_1" xmlns="http://www.w3.org/2000/svg" xmlns:xlink="http://www.w3.org/1999/xlink" x="0px" y="0px"
	 viewBox="0 0 142 40" style="enable-background:new 0 0 142 40;" xml:space="preserve">
<style type="text/css">
	.st0{clip-path:url(#SVGID_00000168801189950094316300000001431427670825752492_);}
</style>
<g>
	<defs>
		<rect id="SVGID_1_" width="142" height="40"/>
	</defs>
	<clipPath id="SVGID_00000182521804103595378940000014816202990205621422_">
		<use xlink:href="#SVGID_1_"  style="overflow:visible;"/>
	</clipPath>
	<g style="clip-path:url(#SVGID_00000182521804103595378940000014816202990205621422_);">
		<path d="M32.9,40H0V0h32.9V40z M0.6,39.4h31.7V0.6H0.6V39.4z"/>
		<path d="M142,40H34V0h108V40z M34.6,39.4h106.8V0.6H34.6L34.6,39.4L34.6,39.4z"/>
		<path d="M42,8.1v10.5h-2.6V8.1H42z"/>
		<path d="M43.2,8.1h2.6v8.3h4.1v2.2h-6.7V8.1z"/>
		<path d="M61.8,16.2c-0.4,0.6-0.8,1.2-1.6,1.8c-0.4,0.3-1.5,0.9-2.9,0.9c-2.8,0-5-2-5-5.6c0-3.1,2.1-5.6,5-5.6c1.2,0,2.3,0.4,3,1
			c0.7,0.6,1.1,1.2,1.4,1.7l-2.1,1c-0.1-0.3-0.3-0.7-0.8-1.1c-0.5-0.4-1-0.5-1.4-0.5c-1.7,0-2.6,1.6-2.6,3.3c0,2.3,1.2,3.5,2.6,3.5
			c1.4,0,1.9-1,2.3-1.6L61.8,16.2L61.8,16.2z"/>
		<path d="M71.7,8.1V14c0,1,0,2-0.6,3c-1.1,1.8-3.4,1.9-3.9,1.9c-0.8,0-1.7-0.2-2.4-0.6c-2-1-2-2.9-2-4.3V8.1h2.6v6.6
			c0,0.5,0,1,0.2,1.3c0.3,0.6,1,0.7,1.7,0.7c1.8,0,1.8-1.2,1.8-2V8.1H71.7L71.7,8.1z"/>
		<path d="M82.1,16.2c-0.4,0.6-0.8,1.2-1.6,1.8c-0.4,0.3-1.5,0.9-2.9,0.9c-2.8,0-5-2-5-5.6c0-3.1,2.1-5.6,5-5.6c1.2,0,2.3,0.4,3,1
			c0.7,0.6,1.1,1.2,1.4,1.7l-2.1,1c-0.1-0.3-0.3-0.7-0.8-1.1c-0.5-0.4-1-0.5-1.4-0.5c-1.7,0-2.6,1.6-2.6,3.3c0,2.3,1.2,3.5,2.6,3.5
			c1.4,0,1.9-1,2.3-1.6L82.1,16.2L82.1,16.2z"/>
		<path d="M92.3,16.2c-0.4,0.6-0.8,1.2-1.6,1.8c-0.4,0.3-1.5,0.9-2.9,0.9c-2.8,0-5-2-5-5.6c0-3.1,2.1-5.6,5-5.6c1.2,0,2.3,0.4,3,1
			c0.7,0.6,1.1,1.2,1.4,1.7l-2.1,1c-0.1-0.3-0.3-0.7-0.8-1.1c-0.5-0.4-1-0.5-1.4-0.5c-1.7,0-2.6,1.6-2.6,3.3c0,2.3,1.2,3.5,2.6,3.5
			c1.4,0,1.9-1,2.3-1.6L92.3,16.2L92.3,16.2z"/>
		<path d="M102.3,8.1v10.5h-2.6v-4.5h-3.8v4.5h-2.6V8.1h2.6v3.8h3.8V8.1H102.3z"/>
		<path d="M106,8.1v10.5h-2.6V8.1H106z"/>
		<path d="M113.2,8.1l3.8,10.5h-2.8l-0.5-1.7h-3.8l-0.5,1.7h-2.8l3.9-10.5H113.2L113.2,8.1z M111.8,10.6c-0.1,0.5-0.3,1.1-0.4,1.6
			c-0.2,0.8-0.6,2-0.9,2.8h2.6L111.8,10.6L111.8,10.6z"/>
		<path d="M120.3,8.1v10.5h-2.6V8.1H120.3z"/>
		<path d="M126.5,18.9c-3.3,0-5.2-2.6-5.2-5.6c0-2.8,1.8-5.5,5.1-5.5c0.6,0,1.3,0.1,1.9,0.3c3.2,1.1,3.4,4.6,3.4,5.3
			c0,1.8-0.8,3.5-2,4.4C128.7,18.7,127.5,18.9,126.5,18.9L126.5,18.9z M128.3,10.7c-0.4-0.5-1.1-0.8-1.8-0.8c-1.6,0-2.6,1.4-2.6,3.3
			c0,2.5,1.4,3.4,2.6,3.4c1.2,0,2.6-0.9,2.6-3.1C129.1,12.5,128.9,11.4,128.3,10.7z"/>
		<path d="M39.4,21.3h3.3c1.3,0,3.2,0,4.5,1.2c1.1,1,1.5,2.5,1.5,3.9c0,0.9-0.1,1.6-0.3,2c-1,3.2-3.9,3.3-5,3.3h-4.1V21.3z
			 M42.1,23.5v6.2h0.8c1.4,0,3.3-0.1,3.3-3.1c0-0.7-0.1-1.5-0.5-2.1c-0.7-1-1.7-0.9-2.5-0.9H42.1z"/>
		<path d="M49.3,21.3h2.3v2.1c0,0.7-0.2,1.4-0.6,2c-0.2,0.2-0.7,0.8-1.7,0.9v-1.1c0.7-0.2,0.9-0.6,0.9-1.5h-0.9V21.3z"/>
		<path d="M58.1,21.3L62,31.8h-2.8l-0.5-1.7h-3.8l-0.5,1.7h-2.8l3.9-10.5H58.1L58.1,21.3z M56.7,23.8c-0.1,0.5-0.3,1.1-0.4,1.6
			c-0.2,0.8-0.6,2-0.9,2.8h2.6L56.7,23.8L56.7,23.8z"/>
		<path d="M62.5,21.3h4.7c1.1,0,2.4,0,3.4,1.1c0.5,0.6,0.8,1.4,0.8,2.3c0,2.1-1.4,2.6-2.1,2.9l2.4,4.2h-2.9l-2.1-3.8h-1.6v3.8h-2.6
			L62.5,21.3L62.5,21.3z M65.2,23.3v2.8h2.2c0.4,0,1.6,0,1.6-1.4c0-1.4-1-1.4-1.5-1.4H65.2z"/>
		<path d="M80.2,30.8c-0.4,0.4-1.3,1.2-3.1,1.2c-2.9,0-4.7-2.4-4.7-5.5c0-3.4,2.2-5.6,5.1-5.6c2.8,0,4.1,1.8,4.6,2.4l-2,1.2
			c-0.4-0.6-1-1.5-2.4-1.5c-2,0-2.7,1.7-2.7,3.4c0,1.2,0.3,2.2,0.8,2.7c0.4,0.4,1.1,0.8,1.9,0.8c0.5,0,1-0.1,1.4-0.4
			c0.7-0.4,0.8-1,0.8-1.6h-2.3v-2h4.5v5.8h-2L80.2,30.8L80.2,30.8z"/>
		<path d="M83.4,21.3h7.7v2H86v1.9h4.8v2H86v2.5h5.6v2.1h-8.2V21.3L83.4,21.3z"/>
		<path d="M92.6,21.3h2.6l2.3,3.9c0.8,1.5,1.1,2,1.6,2.9l-0.1-6.7h2.5v10.5h-2.6l-1.9-3.3c-0.9-1.6-1.1-1.9-1.8-3.3l0.1,6.6h-2.5
			L92.6,21.3L92.6,21.3z"/>
		<path d="M102.2,21.3h8v2.1h-2.7v8.4h-2.6v-8.4h-2.7V21.3z"/>
		<path d="M115.4,32.1c-3.3,0-5.2-2.6-5.2-5.6c0-2.8,1.8-5.5,5.1-5.5c0.6,0,1.3,0.1,1.9,0.3c3.2,1.1,3.4,4.6,3.4,5.3
			c0,1.8-0.8,3.5-2,4.4C117.7,31.9,116.5,32.1,115.4,32.1L115.4,32.1z M117.2,23.9c-0.4-0.5-1.1-0.8-1.8-0.8c-1.6,0-2.6,1.4-2.6,3.3
			c0,2.5,1.4,3.4,2.6,3.4c1.2,0,2.6-0.9,2.6-3.1C118.1,25.7,117.8,24.6,117.2,23.9z"/>
		<path d="M17.3,39.7c0,0,0-1.4,0-2c0-0.1,0-2.6,0-2.6V35h0c0.2-0.4,0.6-0.8,1.2-1.2l0.1-0.1V35v2.7v0c0,0.6,0,2,0,2H17.3L17.3,39.7
			z"/>
		<path d="M14.5,39.7c0,0,0-1.1,0-1.6c0-0.1,0-0.3,0-0.4c0-1.7,0.4-3.2,1-4.3c0.7-1.1,1.6-1.9,2.9-2.5l0,0h0l0,0
			c1.1-0.4,2-1.2,2.5-2.5c0.6-1.3,0.8-3.1,0.8-5.5c0-0.7,0-1.5-0.1-2.4l0-0.1c-0.2-2.3-0.6-4.3-1.2-6.1c-0.6-1.7-1.4-3.1-2.2-3.9
			c-0.6-0.5-1.2-0.8-1.8-0.8c-0.6,0-1.1,0.3-1.7,0.8c-0.5,0.5-1,1.2-1.5,2.2c-0.9,1.9-1.6,4.6-1.9,7.7c-0.1,1-0.2,2.2-0.2,2.7
			c0,0.2,0,0.3,0,0.5c0,1.9,0.4,3.5,1,4.8c0.6,1.2,1.5,2.1,2.6,2.5l0.1,0h0l0,0c0.3,0.1,0.6,0.2,1,0.3h0l0,0l0.1,0l-0.1,0.1
			c-0.5,0.4-1,1.3-1,1.3l0,0.1l-0.1,0c-0.2,0-0.2-0.1-0.3-0.1l-0.1,0v0c-1.4-0.5-2.6-1.6-3.4-3.2c-0.8-1.6-1.3-3.6-1.3-5.9
			c0-0.2,0-0.4,0-0.6c0-0.6,0.1-1.8,0.2-2.8c0.3-2.7,0.8-5.1,1.6-7.1c0.7-1.9,1.6-3.4,2.7-4.3c0.7-0.6,1.4-0.9,2.2-0.9
			c0.8,0,1.6,0.3,2.4,1c0.7,0.6,1.4,1.6,2,2.8c1.1,2.3,1.9,5.4,2.1,8.7l0,0.1c0,0.9,0.1,1.7,0.1,2.5c0,2.7-0.4,4.9-1.1,6.5
			c-0.7,1.6-1.8,2.7-3.2,3.2c-1.3,0.5-2.1,1.3-2.5,2.3s-0.5,1.9-0.5,2.8c0,0.1,0,0.3,0,0.4c0,0.5,0,1.6,0,1.6H14.5L14.5,39.7z"/>
	</g>
</g>
</svg>
