<?xml version="1.0" encoding="UTF-8"?>
<svg id="Layer_2" data-name="Layer 2" xmlns="http://www.w3.org/2000/svg" viewBox="0 0 134.63 90.25">
  <defs>
    <style>
      .cls-1 {
        fill-rule: evenodd;
      }
    </style>
  </defs>
  <g id="Layer_1-2" data-name="Layer 1">
    <g>
      <g id="Globe">
        <path id="SVGID" class="cls-1" d="M35.65,18.96c19.69,0,35.64,15.96,35.64,35.64s-15.95,35.65-35.64,35.65S0,74.29,0,54.6,15.96,18.96,35.65,18.96h0Z"/>
      </g>
      <path d="M134.63,44.89c0,25.47-19.55,45.14-47.85,45.14h-27.38c5.53-3.69,10.14-8.61,13.44-14.41h13.93c18.91,0,31.26-12.73,31.26-30.48s-12.35-30.74-31.26-30.74h-17.75v13.24c-2.61-3.24-5.65-6.12-9.08-8.49-2.11-1.46-4.38-2.7-6.74-3.76V0h33.57c28.31,0,47.86,19.42,47.86,44.89Z"/>
    </g>
  </g>
</svg>