<?xml version="1.0" encoding="UTF-8"?>
<svg id="Layer_2" data-name="Layer 2" xmlns="http://www.w3.org/2000/svg" xmlns:xlink="http://www.w3.org/1999/xlink" viewBox="0 0 454.3 454.3">
  <defs>
    <style>
      .cls-1 {
        fill: none;
      }

      .cls-2 {
        clip-path: url(#clippath);
      }

      .cls-3 {
        fill-rule: evenodd;
      }
    </style>
    <clipPath id="clippath">
      <rect class="cls-1" width="454.3" height="454.3"/>
    </clipPath>
  </defs>
  <g id="Layer_1-2" data-name="Layer 1">
    <g class="cls-2">
      <path class="cls-3" d="M454.3,227.15c0,125.45-101.7,227.15-227.15,227.15S0,352.6,0,227.15,101.7,0,227.15,0s227.15,101.7,227.15,227.15Zm-111.74,91.65c0-3.94-2.53-7.42-7.61-10.43h0l-29.61-17.77c-1.88-1.13-3.85-1.69-5.92-1.69-3.76,0-7.52,2.26-11.28,6.77-14.85,18.05-34.96,27.07-58.09,27.07s-41.88-8.41-56.26-25.24c-14.38-16.82-21.57-38.96-21.57-68.1s7.19-52.88,21.57-71.21c14.38-18.33,34.07-27.5,59.08-27.5,16.92,0,31.02,4,42.3,11.99,11.28,7.99,16.92,18.38,16.92,31.16,0,17.68-10.72,26.51-32.15,26.51-8.28,0-16.17-1.32-23.69-3.95-4.89-1.69-9.03-2.54-12.41-2.54-7.89,0-11.84,4.79-11.84,14.38v24.53c0,7.52,4.88,13.25,14.66,17.2,9.03,3.57,20.68,5.36,34.97,5.36,29.14,0,51.75-7.52,67.82-22.56,16.07-15.04,24.11-34.13,24.11-57.25,0-28.01-11.46-51.65-34.4-70.92-22.94-19.26-51.42-28.9-85.45-28.9-41.36,0-75.53,14.52-102.51,43.57-26.98,29.05-40.47,66.23-40.47,110.97s13.49,80.65,40.47,107.72c26.97,27.07,59.08,40.61,96.3,40.61,49.25,0,86.48-17.1,111.67-51.32,2.25-3,3.38-5.82,3.38-8.46Z"/>
    </g>
  </g>
</svg>