<?xml version="1.0" encoding="UTF-8"?>
<svg id="Layer_2" data-name="Layer 2" xmlns="http://www.w3.org/2000/svg" viewBox="0 0 720 92.51">
  <g id="Layer_1-2" data-name="Layer 1">
    <g id="Layer_2-2" data-name="Layer 2">
      <g id="Layer_1-2" data-name="Layer 1-2">
        <path d="M140.07,51.18h11.14v7.1c-.56,1.23-2.79,7.09-13.09,7.09s-17-7.4-17-19.74,5.85-18.5,17.82-18.5c3.36-.08,6.67,1,9.46,3.08l.56,6.48h4.46v-13.88h-3.62l-.56,2.77c-3.16-2.22-6.83-3.4-10.58-3.39-14.48,0-23.39,8.64-23.39,23.44s7.8,24.67,21.72,24.67c8.07,0,12.53-3.08,15-5.86l.84,4.94h3.62v-22.21h-16.1v4.01h-.28Z"/>
        <path d="M193.25,45.63c0-8.94-4.18-12.95-12.25-12.95-3.48,.03-6.87,1.21-9.75,3.39l-.55-2.77h-3.62l-.28,11.08h4.73l.28-4.63c2.24-1.92,4.97-3,7.8-3.08,5.84,0,8.07,2.77,8.07,8.94v2.81c-8.91,.92-23.67,1.54-23.67,12.03,0,6.47,4.46,10.17,12.53,10.17s10.58-4.31,11.42-5.54l.83,4.63h8.63l.28-4.01-4.17-.31-.28-19.76Zm-5.57,15.42c-.28,.62-2.51,5.25-9.47,5.25-5.56,0-8.35-2.16-8.35-6.79,0-6.48,9.19-6.78,17.82-7.4v8.94Z"/>
        <polygon points="225.54 65.06 208.84 65.06 230 37.62 230 33.61 208 33.61 203.55 33.61 203.55 33.61 203.27 43.78 207.17 43.78 207.72 37.93 222.76 37.93 201.88 65.37 201.88 69.38 230 69.38 230.28 58.89 226.1 58.59 225.54 65.06"/>
        <path d="M256.17,32.69c-7.8,0-11.14,4.01-12,4.93l-.28-4.01h-8.89l-.28,4.32,4.18,.31v44.41l-4.18,.31,.28,4.32h13.64l.28-4.01-4.18-.31v-16.04s3.34,3.39,10.86,3.39c11.14,0,16.71-8.94,16.71-20.35s-6.4-17.27-16.14-17.27Zm-2.51,33.31c-3.2,.08-6.33-1-8.91-3.09v-20.66c2.35-3.28,5.98-5.1,9.75-4.9,7.79,0,12,3.4,12,12.96s-3.9,15.73-12.81,15.73l-.03-.04Z"/>
        <path d="M285.12,39.17h0l-.55-5.54h-8.63l-.28,4.32,4.45,.31v26.52l-4.17,.31,.27,4.32h14.2l.28-4.01-4.69-.35v-22.15c1.68-3.37,4.87-5.49,8.35-5.54h2.78l.28,6.79h4.18v-10.49c-2-.6-4.06-.91-6.13-.92-4.23-.04-8.17,2.41-10.34,6.44Z"/>
        <path d="M323,32.69c-11.7,0-17.82,6.78-17.82,18.5s6.12,19.12,17.82,19.12,17.82-7.4,17.82-19.12-6.14-18.5-17.82-18.5Zm0,33.31c-8.08,0-11.7-5.86-11.7-14.81s3.62-14.49,11.7-14.49,11.69,5.24,11.69,14.49-3.62,14.81-11.69,14.81Z"/>
        <path d="M494.49,42.89c0-7.41-3.34-10.18-10.3-10.18-7.52,0-11.14,3.7-12,4.32-1.39-3.09-4.45-4.32-8.9-4.32-4.11-.11-8.1,1.55-11.12,4.64l-.56-3.39h-8.91l-.28,4.32,4.18,.31v27.14h-50.39v-22.25c0-7.4-3.34-10.17-10.3-10.17-7.52,0-11.14,3.7-12,4.31-1.4-3.08-4.46-4.31-8.91-4.31-4.11-.12-8.11,1.53-11.14,4.62l-.56-3.39h-8.91l-.27,4.32,4.17,.31v26.52l-4.17,.31,.27,4.31h13.65l.27-4-4.17-.31v-24.06c2.55-2.43,5.82-3.75,9.19-3.7,4.17,0,6.12,1.23,6.12,6.17v25.6h9.75l.27-4.01-4.17-.31v-24.06c2.45-2.42,5.63-3.74,8.91-3.7,4.17,0,6.4,1.24,6.4,6.17v25.6h61.81v-28.07c2.56-2.43,5.82-3.74,9.19-3.7,4.17,0,6.12,1.24,6.12,6.17v25.6h9.74l.28-4.01-4.45-.31v-24.06c2.45-2.42,5.63-3.74,8.91-3.7,4.17,0,6.4,1.24,6.4,6.17v25.6h9.75l.27-4.01-4.17-.31,.03-22.17Z"/>
        <path d="M533.19,48.1c0-10.49-5.29-15.42-14.76-15.42-10.3,0-17,6.78-17,18.83s7,18.83,18.09,18.83c9.75,0,13.65-6.16,13.65-6.16l-2.79-2.78c-2.74,3.2-6.61,4.89-10.58,4.63-7.24,0-12-4.32-12.53-13.29h25.34c.33-1.52,.52-3.08,.58-4.64Zm-5.29,.62h-20.9c.55-7.41,4.45-11.72,11.41-11.72,6.4,0,9.75,3.39,9.75,10.17-.03,.53-.13,1.05-.28,1.55h.02Z"/>
        <path d="M571.05,16.03h-9.74l-.28,4.32,4.17,.31v15.42h0s-3.34-3.39-10.85-3.39c-11.14,0-16.71,7.4-16.71,19.12,0,11.08,6.68,18.5,16.43,18.5,7.79,0,10.86-4,11.41-4.93l.56,4.01h8.96l.28-4.01-4.18-.31-.05-49.04Zm-5.57,45.03c-2.33,3.31-5.96,5.15-9.74,4.94-7.8,0-12-4.94-12-14.19s3.92-14.45,12.83-14.45c3.27-.35,6.52,.89,8.91,3.4v20.3Z"/>
        <path d="M586.92,26.83c.86-.06,1.71-.27,2.51-.62,1.23-1.13,1.4-3.15,.38-4.51-.11-.15-.24-.29-.38-.42-1.48-1.23-3.52-1.23-5,0-.63,.64-1.03,1.51-1.11,2.46-.04,.98,.38,1.92,1.11,2.47,.79,.38,1.63,.59,2.49,.62Z"/>
        <polygon points="589.7 33.61 579.96 33.61 579.68 37.93 584.14 38.24 584.14 64.75 579.68 65.06 579.96 69.38 593.6 69.38 593.88 65.37 589.7 65.06 589.7 33.61"/>
        <path d="M704.69,52.11l-3.07,2.77,10.31,10.16h-84.64v-19.41c0-8.94-4.18-12.95-12.25-12.95-3.48,.03-6.87,1.21-9.75,3.39l-.55-2.77h-3.62l-.28,11.08h4.45l.28-4.63c2.24-1.92,4.97-3,7.8-3.08,5.85,0,8.07,2.77,8.07,8.94v2.81c-8.91,.92-23.66,1.54-23.66,12.03,0,6.47,4.45,10.17,12.53,10.17s10.58-4.31,11.41-5.54l.84,4.63h89.37l-10.31,10.18,3.07,2.77,15.31-15.41-15.31-15.14Zm-83,8.94c-.28,.62-2.5,5.25-9.46,5.25-5.57,0-8.36-2.16-8.36-6.79,0-6.48,9.19-6.78,17.82-7.4v8.94Z"/>
        <path d="M0,46.21l46.22,46.3,46.21-46.3L46.22,0,0,46.21Zm59.86,21.05c-3.82,3.81-8.78,5.9-13.92,5.86-12.25,0-17.82-8.02-19.21-13.29-1.1-3.03-1.39-6.35-.84-9.56,.56-4.63,4.46-14.5,18.66-16.04v.62c.05,5.02,1.1,9.96,3.06,14.49-2.23,0-12,0-13.37,9.56-.83,5.86,3.35,12.03,12,12.03,9.74,0,10-8.02,7.79-10.48-2.23-2.22-6.68,0-6.68,0v-6.17h12.51v12.98Zm-6.68-51.84c7.79,11.41,7.79,26.52,0,38.24-7.8-11.72-7.8-26.83,0-38.24Z"/>
        <path d="M53.18,30.22c-3.08,5.81-3.08,13.02,0,18.83,3.07-5.82,3.07-13.01,0-18.83Z"/>
      </g>
    </g>
  </g>
</svg>