<?xml version="1.0" encoding="UTF-8"?>
<svg id="Layer_2" data-name="Layer 2" xmlns="http://www.w3.org/2000/svg" viewBox="0 0 732.34 323.97">
  <defs>
    <style>
      .cls-1 {
        fill: #231f20;
      }
    </style>
  </defs>
  <g id="Livello_1" data-name="Livello 1">
    <g>
      <path class="cls-1" d="M94.08,229.66c1.2-3.2,2.28-6.24,2.28-9.36v-.14h26.05v.43c-3.61,1.01-4.64,5.46-4.64,8.87l9.92,73.91c.9,7.02,1.64,11.09,7.64,15.32v.44h-29.03v-.44c5.25-1.64,6.19-6.18,6.19-11.25l-8.6-72.55-33.67,86.2c-7.55-5.69-9.63-9.81-13.27-18.2l-28.63-67.87-8.62,64.71c-1.18,9.19-2.23,15.82,4.88,18.96v.44H0v-.44c6.37-5.55,7.25-12.95,8.45-21.06l8.56-63.03c.63-4.21,2.25-10.23-4.64-14v-.43h26.38v.14c0,2.41,1.23,4.66,2.1,6.8l28.28,66.32,24.95-63.76Z"/>
      <path class="cls-1" d="M200.01,217.59c-31.52-.73-56.39,23.16-56.39,51.73,0,30.83,25.17,52.19,54.94,52.19s55.32-22.25,55.32-52.92c0-27.06-22.24-51.15-53.87-50.99m-.99,10.81c23.73,0,37.69,21.21,37.69,43.16s-14.58,39.15-37.45,39.15-38.46-21.69-38.46-42.74c0-22.75,14.89-39.58,38.22-39.58"/>
      <path class="cls-1" d="M286.15,299.58c0,8.42-.11,14.45,7.84,19.11v.44h-26.64v-.44c7.99-4.66,7.99-10.69,7.99-19.11v-59.97c0-8.47,0-14.52-7.81-19.01v-.43h21.98v.14c.57,1.83,1.2,2.56,2.23,3.8l2.1,2.99,55.1,69.46v-56.96c0-8.47,.13-14.52-7.82-19.01v-.43h26.49v.43c-7.86,4.49-7.86,10.54-7.86,19.01v84.36c-10.68-3.59-15.39-8.56-21.93-17.13l-51.66-65.46v58.2Z"/>
      <path class="cls-1" d="M458.95,238.82c-8.27-5.22-17.91-8.5-27.8-8.5-20.75,0-35.22,15.16-35.22,36.95s15.04,41.79,38.2,41.79c11.29,0,22.57-4.08,32.05-9.48h.46l-7.68,17.45c-7.03,3.26-14.86,4.48-22.68,4.48-35.53,0-57.48-19.83-57.48-52.01s21.96-51.67,52.82-51.67c9.15,0,18.48,1.64,27.34,3.78v17.22Z"/>
      <path class="cls-1" d="M519.85,308.31c10.22,.61,19.11-2.85,26.62-9.18h.46l-7.86,20h-61.75v-.44c7.71-2.71,6.77-13.8,6.77-20.62v-56.69c0-6.95,.94-17.96-6.77-20.79v-.43h28.68v.43c-7.66,2.83-6.59,14-6.59,20.79v65.58l20.45,1.35Z"/>
      <path class="cls-1" d="M582.59,306.59l19.11,1.84c9.94,.89,20.31-2.27,27.87-8.87h.42l-6.81,19.72h-62.67v-.47c7.73-2.74,6.81-13.83,6.81-20.62v-56.71c0-6.88,.92-17.87-6.81-20.74v-.47h48.11c2.58,0,5.1,.27,7.05-.73h.48v17.58h-.48c-4.64-5.42-10.81-5.98-17.71-5.98-5.3,0-10.57,.11-15.37,1.02v27.96h17.88c2.45,0,4.86,0,6.65-.89h.46v15.95h-.46c-2.41-4.37-8.75-4.27-13.37-4.27h-11.16v35.67Z"/>
      <path class="cls-1" d="M679,220.18c20.29,0,31.24,10.6,31.24,24.27s-11.56,23.64-23.92,26.47l21.67,27.27c6.3,7.81,15.76,15.62,24.36,21.03h-13.83c-7.99,0-12.91-1.94-17.4-7.51l-18.47-22.75-13.9-21.17c12.13-1.82,26.18-7.37,26.18-21.56,0-10.77-9.35-17.11-19.55-16.65-3.48,.14-6.83,.62-10.27,1.21v67.29c0,6.97-.88,17.9,6.79,20.62v.44h-28.7v-.44c7.66-2.71,6.66-13.8,6.66-20.62v-56.69c0-6.95,1.01-17.96-6.66-20.79v-.43l35.81,.02Z"/>
    </g>
    <path class="cls-1" d="M397.25,107.56s-1.55-9.66,.7-17.41c.31-.86,1.07-2.89,2.23-4.51,1.14-1.56,2.71-2.78,3.37-3.19,3.98-2.64,9.13-3.28,14.97,.28,7.77,4.75,8.25,10.77,8.25,10.77,0,0-3.66,.88-6.81,4.39-2.85,3.12-3.98,7.44-3.98,7.44,0,0,3.09-.49,6.52,.74,3.52,1.25,4.51,4.51,4.51,4.51-1.01-.34-3.61-1.07-6.87-.14-3.26,.94-5.38,4.14-5.38,4.14,0,0,3.76,2.01,4.79,3.01,1.01,.96,1.75,5.75,1.75,5.75,0,0-5.08-.57-9.28,.52-3.17,.8-6.24,2.73-8.87,4.68l.96,5.98c2.5-2.06,5.71-4.17,9.41-4.92,6.33-1.36,12.5,.54,12.5,.54,0,0,1.51-3.46,1.51-6.51s-1.75-6.52-3.02-7.82c-1.25-1.23,2.76-.45,3.79-.21,1.01,.21,2.47,2.7,2.47,2.7,0,0,3.35-3.51,2.23-8.22-1.2-5.26-7.22-8.54-7.22-8.54,0,0,.77-1.26,3.52-2.51,2.76-1.27,5.5-.49,5.5-.49,0,0-.35-1.71-1.27-4.39-1.03-2.72-1.73-4.37-1.73-4.37,0,0-6.65-15.04-20.77-15.74-1.05-.07-4.01,0-6.52,.83-1.62,.53-3.11,1.42-4.07,2.05-.59,.42-1.12,.89-1.66,1.32-.07,.07-.2,.18-.26,.27-1.71,1.57-3.06,3.33-4.14,5.19l-.02,.02c-.11,.25-.2,.47-.33,.73-.29,.57-.63,1.19-.87,1.82v-.02c-2.47,5.86-2.67,12.23-2.39,16.75l.09,.93c0,.69,.24,3.18,.53,5.59,.28,2.59,.7,5.08,.7,5.08l11.71,74.96h-20.05l.77,5.3h25.5l-12.76-87.29Z"/>
    <line class="cls-1" x1="349.44" y1="188.79" x2="364.28" y2="98.88"/>
    <path class="cls-1" d="M344.8,95.7s-1.66-.91-3.31-2.05c-1.53-1.03-3.06-2.18-3.31-2.41-4.97-3.77-9.54-10.76-10.75-19.53-1.29-8.82,2.78-18.56,2.78-18.56,0,0-1.03-1.27-3.81-1.5-2.74-.25-6.74,2.01-6.74,2.01,0,0,.55-2.26,1.27-4.02,.72-1.77,2.47-3.79,2.47-3.79-5.47,.52-8.54,3.54-10.53,6.24-1.95,2.81-2.71,6.79-6.02,12.6-3.26,5.73-9.48,11.27-9.48,11.27,0,0,1.53,1.02,8.01,6.53,6.52,5.47,8.54,13.05,8.54,13.05,2.25,7.77,3.52,20.79,4.75,24.28,3.17,7.29,7.49,11.25,10.84,13.48l1.25-6.55c-1.93-1.53-4.01-3.59-5.34-6.15-1.86-3.6-2.76-11.79-2.76-11.79,0,0-.72-12.01-4.99-20.36-4.29-8.23-11.27-13.25-11.27-13.25,0,0,2.01-2.25,3.77-4.51,1.33-1.7,2.78-4.23,3.42-5.41,.24-.35,.48-.9,.72-1.34,.57-.93,1.88-2.48,4.14-2.01,3.37,.64,2.96,4.28,2.96,4.28,0,0-.46,8.99,3.52,17.79,4.05,8.79,13.51,14.77,13.51,14.77l-4.75,29.91,4.75-29.91-15.52,96.08h22.53l1.05-6.05h-16.79l15.1-93.09Z"/>
    <path class="cls-1" d="M380.48,1l-32.09,193.85h5.58l25.98-157.74,8.54,52.93c.74-3.25,1.73-6.61,3.74-9.62L380.48,1Z"/>
    <polygon class="cls-1" points="367.34 136.27 376.21 194.85 381.72 194.85 370.17 118.5 367.34 136.27"/>
    <path class="cls-1" d="M345.39,92.34l9.08-56.03,8.32,52.26,2.91-17.48L354.71,0l-14.6,88.7s1.4,1.2,2.5,1.97c1.01,.69,2.78,1.67,2.78,1.67Z"/>
  </g>
</svg>