<?xml version="1.0" encoding="UTF-8"?>
<svg id="Layer_2" data-name="Layer 2" xmlns="http://www.w3.org/2000/svg" viewBox="0 0 400 247.22">
  <g id="Layer_1-2" data-name="Layer 1">
    <g id="MTV">
      <path d="M149.84,247.2h18.59v-33.22l-18.59-15.65v48.87Zm47.69-32.2h15.55l4.21-3.53v-13.12l-19.76,16.65Zm-1.52-192.49l-12.45,13.08L149.9,.16l42.72,18.78,3.39,3.57Zm181.43,69.19V0l22.56,13.57V63.8c-5.55,5.78-17.14,19.88-22.56,27.9m22.56,18.31V247.21h-22.56v-100.38c4.82-10.44,16.45-28.78,22.56-36.82m-117.77,137.19c-.72-6.17-1.62-15.07-1.62-22.91,0-4.86,.67-24.39,.67-40.15,0-13.27-2.86-36.89-2.86-49.72-.01-7.7,.56-18.17-.3-21.85,6.15-3.98,11.53-6.54,28.49-16.81,5.48-3.31,15.97-8.93,15.97-15.69,0-3.02-.79-4.98-5.05-8.48-2.98-2.38-6.17-3.08-9.79-3.08-8.65,0-12.56,8.68-19.81,13.1-11.04,6.75-16.91,10.08-19.17,11.36-.91-.42-4.65-2.66-10.73-2.66s-13.65,2.84-13.65,11.05c-.02,3.77,1.18,7.85-3.84,10.47-2.81,1.79-16.56,9.65-31.2,18.48-12.33,7.46-18.09,6.85-23.28,9.97-4.81,2.91-6.06,6.52-6.06,9.65,0,2.79,1.76,6.3,2.38,7.07,3.31,4.24,6.28,6.54,11.51,6.54,8.83,0,16.18-7.73,29.85-17.43,8.51-6.06,16.3-12.36,20.88-12.36,4.09,0,6.93,3.1,6.93,15.76,0,42.41-2.59,49.13-2.59,78.53,0,5.29,.21,15.09,.4,19.16h-22.49v-69.46l-43.3,36.48-43.29-36.48v69.46H0V0H136.57l46.99,49.47L230.56,0h137.29V105.7c-4.36,6.71-17.61,29.43-26.55,52.63-2.92,7.57-4.26,13.04-8.11,13.04-4.22,0-4.57-4.15-4.96-7.9-.87-8.13-2.7-23.31-3.55-28.9-1.63-10.8-3.75-22.25-15.83-22.25-8.94,0-18.33,4.9-18.33,18.28,0,7.57,3.84,20.74,10.4,38.07,2.59,6.84,16.35,42.88,18.31,48.1,3.64,9.57,8.67,12.19,16.52,12.19,10.05,0,13.55-3.71,17.68-17.81,3.52-12,9.47-31.6,14.43-43.86,0-.02,0,0,0,0v79.93h-85.63v-.02Z"/>
    </g>
  </g>
</svg>