<?xml version="1.0" encoding="UTF-8"?>
<svg id="Layer_2" data-name="Layer 2" xmlns="http://www.w3.org/2000/svg" viewBox="0 0 410.45 410.53">
  <g id="Layer_1-2" data-name="Layer 1">
    <g id="Paramount_Channel" data-name="Paramount Channel">
      <g>
        <path d="M63.77,250.31c10.88-12.82,19.57-23.41,22.72-28.1,6.59-5.15,25.63-22.51,25.63-22.51l53.54-76.91,6.69-6.27,10.92-12.42,5.44-7.91,18.18-14.39,10.7,14.1,8.48,2.61,5.23,21.15,6.59,6.3,6.26,17.43,13.99,21.15,2.18,12.24,35.15,16.04,24.34,40.8,1.14,7.12,15.93,23.52,15.6,24.51h.22c14.17-24.73,22.3-53.4,22.37-83.96,.29-94.06-75.77-170.54-169.83-170.83-94.09-.23-170.57,75.82-170.82,169.88-.07,23.41,4.62,45.74,13.1,66.03,5.54-6.62,12.59-15.28,16.25-19.58"/>
        <path d="M121.7,214.78c5.3-7.94,7.59-10.91,7.12-11.45-.82-.9-6.94,5.44-12.06,10.35-2,1.89-4.58,4.04-7.16,7.27-4.87,6.05-10.74,15-19.79,27.09-2.83,3.76-6.94,7.83-10.34,12.31-2.26,3.08-2.36,4.44,1.83,.03,4.19-4.43,18.43-20.51,20.9-23.69,5.58-7.23,6.8-3.18,10.45-8.87-.01,0,5.54-7.81,9.05-13.04"/>
        <path d="M155.24,188.9c5.51-8.8,8.23-13.99,11.02-15.68,2.79-1.64,4.58-4.01,8.77-9.7s4.47-6.23,5.44-5.55c.97,.71-2.93,6.51-5.44,12.77-2.54,6.27-2.11,10.13-2.58,16.79-.43,6.69-4.19,8.73-7.95,16.53-3.79,7.77-5.44,10.95-7.8,11.63s-3.33,1.4-5.3,5.55-3.29,5.76-5.73,8.31c-2.43,2.58-2.72,3-3.37,4.94-.61,1.93-2.08,3.4-4.08,4.65-2.04,1.22-6.98,8.52-8.45,10.16-1.47,1.68-2.08,1.61,0-3.04,2.11-4.65,6.44-12.35,7.7-14.93,1.25-2.57,.57-3.93,3.79-11.77,3.22-7.83,4.51-9.87,5.83-11.81,1.36-1.93,.86-3.26,.18-3.47-.72-.22-1.4-.96,.82-4.8,2.28-3.78,3.82-5.28,7.15-10.58"/>
        <path d="M213.05,199.25c-1.79-6.51-1.93-7.41-2.97-10.56-1.07-3.15-1.47-4.83,1.5-8.16,3.01-3.33,1.79-10.74-1.11-18.68,0,0-4.76-12.67-3.22-13.86,1.5-1.18,4.98,8.84,13.14,23.3,8.13,14.46,12.42,22.94,20.08,37.15,7.69,14.17,7.19,15.32,7.41,17.39,.32,3.61-3.59,4.86-2.9,7.27,1.04,3.47,4.83,16.96,6.01,19.33,1.14,2.36,2.39,2.86,5.41,8.62,2.94,5.8,2.94,8.16,1.82,9.35-1.11,1.14-1.61,2.18-.71,5.62,.9,3.4,4.29,11.02,5.58,13.28,1.32,2.22,1.4,3.11-1.04,1.79-2.44-1.32-3.11-2-5.04-6.12-1.94-4.12-10.02-21.16-13.14-27.64-3.08-6.44-5.84-12.71-8.77-18.75-2.9-6.05-3.37-9.37-5.94-10.73-2.55-1.33-4.98-.82-6.59-3.54-1.57-2.72-1.5-3.72-2.68-4.54-1.18-.83-1.93-3.4-3.72-9.77-1.79-6.42-1.83-6.09-3.12-10.75"/>
        <path d="M249.29,186.39c3.33,6.58,6.62,13.92,10.63,22.26,4.01,8.34,9.13,17.65,12.85,24.91,3.72,7.23,9.56,15.14,13.28,17.26,3.76,2.07,5.01,.14,9.31,4.19,4.29,4.04,15.5,17.39,19.25,21.18,3.72,3.76,8.31,12.38,10.91,14.9,2.65,2.5-.53-4.73-4.4-10.74-3.87-5.97-9.56-16.96-13.85-23.91-4.26-6.98-6.09-8.91-6.77-11.28-.68-2.36-.54-2.22-8.84-10.02-8.34-7.8-13.03-11.88-15.25-15.21s1.68-4.54-2.47-9.7c-4.15-5.16-9.41-11.28-14.53-16.47-5.12-5.12-6.94-7.91-10.13-11.95-3.18-4.04-4.15-6.4-5.26-5.58-1.1,.85,2.88,5.4,5.27,10.16"/>
        <path d="M206.3,24.73l8.48-5.45,7.73,6.45-2.54-9.88,8.52-5.58-10.13-.64-2.4-9.63-3.65,9.24-10.06-.57,7.84,6.58-3.79,9.48Zm164.03,108.34l8.41,5.55-2.76,9.7,7.98-6.4,8.62,5.55-3.58-9.52,7.84-6.08-9.95,.43-3.54-9.48-2.87,9.87-10.15,.38Zm25.56,25.41l-4.65,9.13-10.13-1.57,7.23,7.05-4.55,8.98,9.06-4.69,7.38,7.01-1.65-9.98,8.87-4.55-9.88-1.43-1.68-9.95Zm-18.29,125.84l2.33,9.99,4.04-9.3,9.91,1.03-7.49-6.58,4.08-9.24-8.95,5.08-7.62-6.83,2.22,9.85-8.7,5.08,10.18,.92Zm18.36-34.93l9.91-.86-8.59-5.04,2.22-9.85-7.8,6.69-8.77-5.26,4.08,9.27-7.62,6.62,10.2-1,4.19,9.3,2.18-9.87Zm5.11-43.41l.32-10.1-6.37,8.09-9.59-3.48,5.73,8.23-6.19,7.98,9.8-2.9,5.87,8.34,.29-10.13,9.52-2.72-9.38-3.31ZM240.8,28.42l9.38-3.76,6.37,7.84-.64-10.24,9.48-3.83-9.84-2.58-.54-9.87-5.33,8.37-9.74-2.55,6.4,7.98-5.54,8.64Zm121.98,78.31l-.86,10.06,6.62-7.77,9.48,3.79-5.29-8.7,6.51-7.44-9.66,2.29-5.3-8.63-.9,10.24-9.95,2.33,9.35,3.83Zm-79.02-70.04l4.75,8.91,1.33-10.13,10.06-2.01-9.2-4.4,1.4-9.85-6.84,7.27-9.13-4.33,4.76,9.05-7.05,7.41,9.92-1.92Zm47.42,39.83l9.88,1.97,1.07,10.02,5.01-8.91,10.02,1.93-6.84-7.51,4.98-8.59-9.06,4.12-6.84-7.44,1.07,10.24-9.29,4.17Zm-16.75-21.62l2.97,9.63,3.22-9.67,10.2-.11-8.13-6.01,3.26-9.38-8.12,5.8-8.09-6.06,2.93,9.85-8.33,5.87,10.09,.08ZM24.27,127.74l9.23-4.52,7.12,7.34-1.54-9.95,9.06-4.44-10.09-1.68-1.65-10.09-4.69,8.98-9.74-1.72,6.94,7.12-4.64,8.96Zm-6.15,137.79l2.83,9.63,3.54-9.63,10.24,.32-8.02-6.08,3.43-9.48-8.45,5.79-8.2-6.12,2.9,9.73-8.27,5.58,10,.26ZM138.37,37.47l5.83-8.27,9.63,3.12-6.12-8.24,5.83-8.37-9.63,3.19-5.83-8.02,.11,9.95-9.59,3.19,9.73,3.22,.04,10.23Zm-32.68,5.77l1.97,10.06,4.15-9.24,9.99,1.22-7.52-6.87,4.12-9.38-8.84,5.02-7.27-6.8,2,9.77-8.8,4.97,10.2,1.25Zm-29.06,21.97l3.9,9.45,2.25-9.85,10.1-.75-8.73-5.3,2.26-9.98-7.7,6.58-8.45-5.26,3.8,9.2-7.66,6.55,10.23-.64ZM171.72,27.81l7.3-7.01,8.84,4.91-4.4-9.24,7.3-7.12-10.06,1.29-4.19-9.02-1.82,9.81-9.99,1.32,8.91,5.02-1.89,10.04ZM52.33,92.16l5.55,8.52,.39-10.06,9.77-2.68-9.56-3.54,.25-10.2-6.3,7.94-9.26-3.58,5.51,8.31-6.3,7.88,9.95-2.59ZM12.68,163.57l8.2-6.16,8.41,5.8-3.43-9.49,8.09-6.08-10.24,.29-3.54-9.56-2.9,9.7-9.91,.14,8.2,5.62-2.88,9.74Zm-4.51,37.5l6.9-7.66,9.34,4.19-5.15-8.7,6.73-7.51-9.99,2.22-5.3-8.73-.96,10.09-9.74,2.04,9.13,4.01-.96,10.05Zm2.75,37.65l5.34-8.77,9.98,2.29-6.73-7.55,5.19-8.66-9.37,4.08-6.88-7.55,.93,10.09-9.12,3.9,9.73,2.11,.93,10.06Z"/>
        <path d="M365.47,310.67l-6.5,14.4h-4.65l-1.26,2.69,4.58-.04c-2.42,5.92-4.25,9.59-6.99,15.7-3.09,6.94-9.36,10.78-10.65,10-.97-.56-.8-1.82-.38-3.18,2.46-5.43,5.23-11.57,7.69-17.18,.99-2.19,1.79-4.63,.41-6.98-1.12-1.96-3.6-2.08-5.6-1.74-4.25,.68-7.88,3.5-11.18,6.18l2.14-5.17-8.95,.07c-2.46,5.14-4.19,9.12-6.51,14.4-2.25,4.49-8.67,11.74-12.48,13.92-.64,.33-1.79,.52-2.15-.3-.45-1.86,.33-3.15,.96-4.48,2.85-6.43,6.72-15.23,10.12-23.5l-8.73,.04c-2.6,6.15-5.24,11.29-7.99,17.39-2.43,4.93-7.18,10.79-10.18,11.28-1.04,.15-1.97,.02-1.98-.88,0-1.11,.13-1.9,.83-3.4l10.6-24.64c-2.39,.02-6.51,.16-8.59,.04-.35,1-1.02,2.48-1.51,3.8-1.94,3.27-6.74,7.64-10.37,4.99,.02-1.51-.34-2.15-.67-3.46-.66-2.43-2.3-4.92-4.77-5.73-7-2.27-14.23,1.7-18.8,6.85-4.29,4.47-7.4,9.76-8,15.56-2.3,3.31-3.93,4.93-6.88,7.46-.5,.33-1.68,.84-2.32,.31-.36-.28-.33-1.49-.02-2.07,2.6-5.54,7.17-16.28,9.45-21.7,1.79-3.98-.53-8.08-6.49-6.6-4.11,1.04-7.03,3.5-9.83,5.56,.16-2.18-1.01-5.11-3.48-5.63-4.45-1-10.42,3.88-12.73,6.05-.11,0-.36-.22-.36-.22l2.39-5.06-8.63,.03c-2.28,5.28-4.25,9.88-6.39,14.52-2.29,4.99-7.99,11.45-11.24,12.87-1.35,.73-2.36,.59-2.86,.24-.5-.32-1.01-.82-.34-2.29,3.94-8.77,6.99-15.7,11.07-24.97-5.94-3.78-14.05-1.92-19.96,.92-2.96,1.49-5.55,3.48-7.69,5.5-1.17,.97-2.17,1.67-3.49,2.47-1.28,1.01-2.29,.52-2.65-.33-.15-.79,.34-2.26,.83-3.41,.77-1.83,2.26-3.35,2.43-5.28,.34-2.19-2.77-2.16-4.09-1.51-3.31,1.85-6.12,4.81-8.71,6.83-.18,.15-.18,0,0-.36l2.25-4.92-8.41,.04-5.83,13.22c-3.31,6.4-7.56,12.09-12.34,14.38-.5,.37-1.32,.37-1.97,.02-.83-.49-.52-1.93-.2-2.79,3.76-8.76,6.71-15.37,10.75-24.64-5.93-3.1-14.37-2.06-19.78,1.09-8.55,4.83-14.83,11.29-18.16,20.23-1.19,3.2-1.66,6.64-.35,9.96,1.06,2.32,3.54,3.94,6.18,3.03,4.79-.97,8.23-3.97,11.78-7.62h.36c-.17,1.47-.33,3.12,.04,4.62,.33,1.28,1.7,2.6,2.96,2.8,4.48,.83,10.06-3.87,14.64-8.03,.18-.15,.36,0,.18,.22l-3.23,7.25,8.88-.04,7.52-17.2c1.3-2.84,2.46-5.32,5.09-7.49,.32-.15,.79-.15,.64-.01,.01,1.03,.16,2.47,.85,3.28,.65,.86,1.84,1.67,2.99,1.84,1.33,.17,3.29-.03,4.25-.53-1.63,2.34-2.93,5.14-4.05,7.8-1.97,4.13-1.65,7.75-.42,10.06,.95,2,3.47,3.76,6.25,3.13,4.79-1.18,8.2-4.18,12-7.83,.18-.21,.36-.22,.36,0-.35,1.44-.48,2.94-.18,4.59,.37,1.32,1.67,2.63,3.17,2.77,4.45,.86,10.56-4.31,15.29-8.29,0-.18,.18,0,.18,.14-.99,1.98-2.6,5.78-3.44,7.76l8.77-.04,6.54-14.65c1.09-2.69,2.43-5.17,3.91-7.65,1.45-2.48,3.29-4.47,5.43-5.95,.96-.51,2.28-1.24,3.14-.85,.43,.32,.66,1.47,.27,2.29-3.86,8.95-7.62,17.71-11.56,26.76l8.95-.03c2.6-6.47,5.66-12.72,8.47-19.36,.63-1.65,1.51-2.95,2.61-4.24,1.8-3.03,3.97-4.65,6.75-6.18,1-.51,2.47,.3,1.98,1.31-3.13,7.39-5.72,13.57-8.82,20.15-.95,2.2-1.82,4.85-.29,7.34,.51,.93,1.3,1.78,2.3,1.95,6.63,.91,11.42-4.53,15.64-8.87,.17,2.79,1.37,5.97,3.35,7.31,4.1,2.76,8.75,2.22,12.89,.22,8.38-4.04,13.79-12.46,15.72-21.72q0-.18,.18-.18c1.48,.49,4.3,.46,6.54-.55-2.7,6.6-5.16,12.14-6,14.12-3.1,7.25,1.37,10.72,6.37,9.22,4.39-1.54,7.55-4.54,10.82-7.86,.18-.1,.29-.11,.29,0-.92,2.16-.61,4.62,.41,6.26,.98,1.71,2.81,2.3,4.63,1.82,4.57-1.22,9.23-5.37,12.81-9.02,0-.14,.14-.15,.14,0-1.09,2.7-2.6,6-3.58,8.48l8.77-.04c1.93-4.03,3.9-8.15,5.74-12.29,2.6-6.1,5.7-12.03,11.77-16.7,1.32-.98,2.78-.99,3.25-.49,.4,.11,.58,1.28,.41,1.6-2.99,7.11-5.73,13.26-8.82,20.08-.66,1.62-.79,3.58-.5,5.38,.56,2.36,3.32,3.16,5.5,2.82,4.97-1.05,8.69-4.69,12.64-7.69-.34,2.01-.47,4.12,.05,5.97,.3,1.15,.66,1.97,1.31,2.92,1.3,1.82,3.64,3.12,5.83,3.14,7.23,.12,14.76-6.85,18.24-13.79,.14-.36-2.51-.66-2.65-.23-2.96,4.68-6.4,9.04-11.51,10.83-1.64,.52-3.47,.21-3.98-1.25-.71-2.68,.62-7.02,1.92-9.61,3.27-7.65,6.36-14.4,10.13-22.48l6.62-.02,1.26-2.7-6.73,.02,6.32-14.37-8.93,.02Zm-239.35,16.15c.29,0,.64-.01,.47,.35-3.2,7.11-4.57,10.24-7.17,15.84-2.61,5.14-7.17,11.08-10.47,11.11-1.54,.01-2.87-1.12-2.36-3.88,.78-5.3,5.87-12.61,9.03-16.39,2.59-3.17,6.71-7,10.5-7.03Zm59.06-.31c.36,0,.72-.01,.5,.32-3.23,7.15-4.57,10.27-7.17,15.88-2.61,5.11-7.21,11.08-10.47,11.11-1.65,.01-2.84-1.15-2.36-3.92,.78-5.3,5.87-12.58,8.96-16.39,2.62-3.14,6.78-6.97,10.54-7Zm81.09,.03c.37-.01,.73,.05,1.09,.19,3.33,1.12,.22,10.38-3.65,17.89-3.95,7.44-8.5,15.57-12.16,13.74-3.49-1.65-.56-10.94,3.35-18.35,3.58-6.78,7.81-13.39,11.37-13.47h0Zm-193.94-39.41c25.63,1.08,40.84,13.55,40.88,27.11,.09,24.09-38.14,28.45-38.14,28.45-6.48,33.44-32.94,46.33-51.3,46.24-24.59-.05-24.36-19.99-23.49-22.61,.98-2.98,2.5-5.64,5.61-5.66,3.11-.03,5.67,2.49,5.66,5.61,.02,1.89-.93,3.69-2.5,4.63-3.27,2.07-2.65,4.53-2.65,4.53,.05,10.63,13.77,11.38,17.35,11.35,36.75-.2,32.18-60.65,64.4-81.35,1.49-.98,2.65-.02,1.76,1.06-10.06,12.68-13.72,33.11-13.72,33.11,15.6-.09,25.79-15,25.74-25.3-.11-17.71-16.06-25.03-29.59-24.96-37.87,.21-54.05,26.72-54,41.07,.08,14.42,9.18,19.61,15.8,19.56,9.09-.04,11.94-6.22,10.8-9.18-1.82-4.71,.68-8.6,3.51-8.62,1.11-.01,4.87-.22,4.88,6.44,.05,6.37-8.98,12.82-18.94,12.9-9.95,.04-24.38-5.28-24.47-21.02-.14-32.03,39.13-44.38,62.41-43.36"/>
        <path d="M101.9,400c-.57,3.4-1.97,6.01-4.26,7.88-2.15,1.75-4.8,2.65-7.98,2.65-3.55,0-6.55-1.22-8.98-3.65-1.51-1.5-2.47-3.4-2.9-5.76-.25-1.36-.36-3.87-.36-7.52s.11-6.15,.36-7.51c.43-2.33,1.4-4.26,2.9-5.76,2.44-2.44,5.44-3.65,8.98-3.65,3.22,0,5.91,.93,8.12,2.72,2.18,1.82,3.54,4.4,4.12,7.8h-6.59c-.79-3.15-2.65-4.73-5.62-4.73-1.97,0-3.47,.75-4.55,2.22-.82,1.18-1.25,4.15-1.25,8.91,0,2.58,.03,4.23,.11,4.87,.21,2.07,.71,3.61,1.54,4.54,1.03,1.14,2.39,1.72,4.15,1.72,2.97,0,4.83-1.57,5.62-4.72h6.59Z"/>
        <path d="M139.5,410.23h-6.48v-13.92h-11.27v13.92h-6.51v-33.29h6.51v13.6h11.27v-13.6h6.48s0,33.29,0,33.29Z"/>
        <path d="M180.71,410.23h-6.76l-1.97-5.91h-11.85l-2,5.91h-6.76l12.1-33.29h5.08l12.16,33.29Zm-10.49-11.34l-4.04-12.13-4.22,12.13h8.26Z"/>
        <path d="M218.04,410.23h-5.8l-13.17-20.44v20.44h-6.51v-33.29h5.8l13.17,20.4v-20.4h6.51v33.29Z"/>
        <path d="M259,410.23h-5.79l-13.17-20.44v20.44h-6.51v-33.29h5.8l13.17,20.4v-20.4h6.51v33.29h-.01Z"/>
        <path d="M296.42,410.23h-21.94v-33.29h21.94v5.8h-15.43v7.8h13.14v5.8h-13.14v8.09h15.43v5.8Z"/>
        <path d="M332.1,410.23h-21.59v-33.29h6.48v27.49h15.11v5.8h0Z"/>
      </g>
    </g>
  </g>
</svg>