<?xml version="1.0" encoding="UTF-8"?>
<svg id="Layer_2" data-name="Layer 2" xmlns="http://www.w3.org/2000/svg" viewBox="0 0 533.32 97.7">
  <defs>
    <style>
      .cls-1, .cls-2, .cls-3 {
        fill: #020101;
      }

      .cls-2 {
        opacity: .5;
      }

      .cls-2, .cls-3 {
        isolation: isolate;
      }

      .cls-3 {
        opacity: .35;
      }
    </style>
  </defs>
  <g id="Layer_1-2" data-name="Layer 1">
    <g>
      <path class="cls-1" d="M3.19,88.59V9.11c0-3.27,2.64-5.91,5.91-5.92H524.22c3.27,0,5.91,2.65,5.91,5.92V88.59c0,3.27-2.64,5.91-5.91,5.92H9.1c-3.27,0-5.91-2.65-5.91-5.92M9.1,0C4.07,.01,0,4.08,0,9.11V88.59c0,5.03,4.07,9.1,9.1,9.11H524.22c5.03-.01,9.09-4.08,9.1-9.11V9.11c0-5.03-4.07-9.1-9.1-9.11H9.1Z"/>
      <g>
        <g>
          <path class="cls-3" d="M83.24,48.06c-.33-.75-.92-1.36-1.65-1.73L34.25,19c-2.4-1.39-4.36-.26-4.36,2.52v54.66c0,2.77,2,3.9,4.36,2.52l47.34-27.33c.73-.38,1.31-.99,1.65-1.74,.2-.5,.2-1.07,0-1.57"/>
          <path class="cls-3" d="M83.24,48.06c-.33-.75-.92-1.36-1.65-1.73L34.25,19c-2.4-1.39-4.36-.26-4.36,2.52v43.51l53.35-15.4c.2-.5,.2-1.07,0-1.57"/>
          <path class="cls-2" d="M83.24,48.06c-.33-.75-.92-1.36-1.65-1.73L34.25,19c-2.4-1.39-4.36-.26-4.36,2.52v27.33h53.5c0-.27-.05-.54-.15-.79"/>
          <path class="cls-1" d="M29.89,21.52v11.14l53.35,15.4c-.33-.75-.92-1.36-1.65-1.73L34.25,19c-.58-.36-1.25-.57-1.94-.6-1.43,0-2.42,1.15-2.42,3.12"/>
        </g>
        <path class="cls-1" d="M114.08,28.15h12.52c3.48,0,6.08,.84,7.79,2.52,1.79,1.9,2.72,4.45,2.56,7.05,0,3.07-.88,5.41-2.65,7-1.77,1.59-4.33,2.39-7.7,2.39h-12.52V28.15Zm-10.35-9.74c-.57-.02-1.12,.2-1.52,.61-.39,.43-.59,.99-.57,1.57v56.61c-.01,.56,.21,1.09,.61,1.48,.39,.4,.92,.62,1.48,.61h8.35c.58,.02,1.14-.18,1.57-.57,.41-.4,.63-.95,.6-1.52v-20.35h12.79c7.01,0,12.51-1.61,16.52-4.83,4.01-3.22,6.01-7.96,6-14.21,0-6.32-2-11.13-6-14.44s-9.51-4.97-16.52-5l-23.31,.04Zm73.3,9.74h12.08c3.48,0,6.09,.8,7.83,2.39,1.82,1.79,2.77,4.28,2.61,6.83,0,3-.87,5.2-2.61,6.74s-4.35,2.3-7.83,2.3h-12.08V28.15Zm-10.18-9.74c-.57-.02-1.12,.2-1.52,.61-.39,.43-.59,.99-.57,1.57v56.61c-.01,.56,.21,1.09,.61,1.48,.39,.4,.92,.62,1.48,.61h8c.59,.02,1.15-.2,1.57-.61,.4-.39,.62-.92,.61-1.48v-20.87h11.91l11.13,20.61c.36,.64,.83,1.22,1.39,1.7,.63,.46,1.4,.69,2.18,.65h8c.47,0,.92-.19,1.26-.52,.37-.33,.58-.81,.57-1.31-.01-.33-.1-.66-.26-.95l-12.62-22.18c3.43-1.12,6.42-3.29,8.53-6.22,2.09-3.15,3.14-6.87,3-10.65,0-6.09-2-10.79-6-14.09-4-3.3-9.58-4.97-16.74-5l-22.53,.04Zm64.11,0c-.57-.02-1.12,.2-1.52,.61-.38,.43-.59,.99-.56,1.57v56.61c-.01,.56,.21,1.09,.61,1.48,.38,.4,.92,.62,1.47,.61h39.05c.58,.02,1.14-.18,1.57-.57,.41-.4,.63-.95,.61-1.52v-5.91c.02-.57-.2-1.12-.61-1.52-.43-.39-.99-.59-1.57-.57h-29.22v-15.74h26.61c.58,.02,1.14-.18,1.57-.57,.41-.4,.63-.95,.61-1.52v-5.52c.05-1.15-.85-2.13-2.01-2.17-.06,0-.12,0-.17,0h-26.61v-15.18h28.53c.57,.02,1.13-.18,1.56-.57,.41-.4,.63-.95,.61-1.52v-5.82c.02-.59-.2-1.15-.61-1.57-.42-.41-.98-.63-1.56-.61h-38.36Zm105.22,0c-1.11,0-2.13,.65-2.61,1.65l-16.78,31.14-16.79-31.14c-.48-1-1.49-1.65-2.6-1.65h-7.05c-.57-.02-1.12,.2-1.52,.61-.39,.43-.59,.99-.57,1.57v56.61c-.01,.56,.21,1.09,.61,1.48,.39,.4,.92,.62,1.48,.61h7.48c.57,.02,1.12-.2,1.52-.61,.38-.4,.58-.93,.57-1.48V39.85l12.09,23c.54,1.15,1.68,1.89,2.95,1.92h3.7c1.26,0,2.4-.75,2.87-1.92l12.08-23v37.39c-.01,.56,.21,1.09,.61,1.48,.39,.4,.92,.62,1.48,.61h7.48c.58,.02,1.14-.18,1.57-.57,.41-.4,.63-.95,.6-1.52V20.59c.06-1.14-.81-2.12-1.95-2.18-.07,0-.14,0-.22,0h-7Zm30,0c-.55-.01-1.08,.19-1.48,.57-.41,.4-.63,.95-.61,1.52v56.7c0,1.15,.92,2.08,2.07,2.09,0,0,.01,0,.02,0h8.35c.57,.02,1.12-.2,1.52-.61,.37-.4,.57-.93,.56-1.48V20.5c.08-1.07-.73-2.01-1.8-2.09-.09,0-.19,0-.28,0h-8.35Zm31.35,0c-.57-.03-1.13,.2-1.53,.61-.38,.43-.58,.99-.56,1.57v56.61c0,1.15,.92,2.08,2.07,2.09,0,0,.01,0,.02,0h39c.57,.02,1.13-.18,1.56-.57,.41-.4,.63-.95,.61-1.52v-5.91c.02-.57-.2-1.12-.61-1.52-.43-.39-.99-.59-1.56-.57h-29.17v-15.74h26.61c.57,.02,1.13-.18,1.56-.57,.41-.4,.63-.95,.61-1.52v-5.52c.05-1.15-.85-2.12-2.01-2.17-.05,0-.11,0-.16,0h-26.61v-15.18h28.52c.58,.02,1.14-.18,1.56-.57,.41-.4,.63-.95,.61-1.52v-5.82c.05-1.15-.84-2.13-2-2.18-.06,0-.12,0-.17,0h-38.35Zm69.56,9.74h12.09c3.48,0,6.09,.8,7.83,2.39,1.82,1.79,2.77,4.28,2.61,6.83,0,3-.87,5.2-2.61,6.74s-4.35,2.3-7.83,2.3h-12.09V28.15Zm-10.17-9.74c-.57-.03-1.13,.2-1.53,.61-.38,.43-.58,.99-.56,1.57v56.61c0,1.15,.92,2.08,2.07,2.09,0,0,.01,0,.02,0h8c.58,.02,1.15-.2,1.56-.61,.4-.39,.62-.92,.61-1.48v-20.87h11.92l11.13,20.61c.36,.64,.83,1.22,1.39,1.7,.62,.47,1.39,.7,2.17,.65h8c.47,0,.92-.19,1.26-.52,.37-.33,.58-.81,.57-1.31-.01-.33-.1-.66-.26-.95l-12.61-22.18c3.43-1.12,6.41-3.3,8.52-6.22,2.11-3.14,3.18-6.87,3.05-10.65,0-6.09-2.02-10.79-6.05-14.09s-9.61-4.97-16.74-5l-22.52,.04Z"/>
      </g>
    </g>
  </g>
</svg>