<?xml version="1.0" encoding="UTF-8"?>
<svg id="Layer_2" data-name="Layer 2" xmlns="http://www.w3.org/2000/svg" viewBox="0 0 400 240.25">
  <defs>
    <style>
      .cls-1 {
        fill: #020101;
      }

      .cls-2 {
        fill: #fff;
      }
    </style>
  </defs>
  <g id="Layer_1-2" data-name="Layer 1">
    <path class="cls-1" d="M253,0h-106.15c-6.69,0-12.12,5.43-12.13,12.12V117.98c0,6.7,5.43,12.13,12.13,12.14h106.15c6.69-.02,12.11-5.44,12.12-12.13V12.12c-.01-6.69-5.43-12.11-12.12-12.12Zm-32.5,122.12c0,2.24-.94,3.71-3.06,3.71h-34.24c-2.13,0-3.07-1.47-3.07-3.71v-34c0-1.41,1.14-2.54,2.55-2.55h35.32c1.39,.03,2.49,1.16,2.5,2.55v34Zm0-79.7c0,1.41-1.14,2.54-2.55,2.55h-35.27c-1.41,0-2.54-1.14-2.55-2.55V7.96c0-2.25,.94-3.71,3.07-3.71h34.24c2.12,0,3.06,1.46,3.06,3.71V42.42Z"/>
    <path class="cls-1" d="M387.71,0h-105.77c-6.69,0-12.12,5.43-12.13,12.12V117.98c0,6.7,5.43,12.13,12.13,12.14h105.77c6.69-.02,12.11-5.44,12.12-12.13V12.12c-.01-6.69-5.43-12.11-12.12-12.12Zm-73.63,122.12c0,2.24-.94,3.71-3.06,3.71h-27c-7.08,0-10-4.48-10-10V48.49c0-2.24,.94-3.71,3.07-3.71h34.45c1.36,.03,2.45,1.11,2.5,2.47l.04,74.87Zm81.51-6.3c0,6.28-3.88,10-10,10h-27.59c-2.12,0-3.06-1.47-3.06-3.71V47.33c0-1.39,1.12-2.52,2.51-2.55h35c2.07,0,3,1.4,3.06,3.56l.08,67.48Z"/>
    <path class="cls-1" d="M117.9,0H12.13C5.44,0,.01,5.43,0,12.12V117.98c0,6.7,5.43,12.13,12.13,12.14H117.9c6.69-.03,12.09-5.45,12.1-12.14V12.12c-.01-6.68-5.42-12.1-12.1-12.12ZM44.27,122.12c0,2.24-.94,3.71-3.07,3.71H14.25c-7.08,0-10-4.48-10-10V48.49c0-2.24,.94-3.71,3.06-3.71H41.77c1.35,.04,2.45,1.12,2.5,2.47V122.12Zm81.5-6.3c0,6.28-3.88,10-10,10h-27.54c-2.12,0-3.06-1.47-3.06-3.71V47.33c0-1.39,1.11-2.52,2.5-2.55h35c2.07,0,3,1.4,3.06,3.56l.04,67.48Z"/>
    <path class="cls-1" d="M387.87,149.04H12.13c-6.7,0-12.12,5.43-12.13,12.13v66.95c0,6.7,5.43,12.12,12.13,12.13H387.87c6.7,0,12.12-5.43,12.13-12.13v-66.95c0-6.7-5.43-12.12-12.13-12.13h0Z"/>
    <path class="cls-2" d="M90.38,217.48c-.3-.29-.47-.68-.46-1.1v-42.18c-.02-.43,.13-.85,.42-1.17,.3-.31,.71-.47,1.14-.45h5.25c.83,0,1.58,.48,1.94,1.23l12.51,23.2,12.5-23.2c.36-.75,1.12-1.23,1.95-1.23h5.18c.43-.01,.86,.15,1.17,.45,.3,.31,.47,.73,.45,1.17v42.18c.02,.43-.14,.84-.45,1.14-.32,.28-.74,.43-1.17,.42h-5.57c-.86,0-1.55-.68-1.56-1.54,0,0,0-.01,0-.02v-27.86l-9,17.11c-.35,.87-1.19,1.43-2.13,1.42h-2.73c-.94-.02-1.79-.57-2.2-1.42l-9-17.11v27.86c0,.41-.14,.8-.42,1.1-.29,.31-.7,.48-1.13,.46h-5.57c-.42,.02-.83-.15-1.12-.46Z"/>
    <path class="cls-2" d="M153.29,214.12c-3.24-2.98-4.86-7.49-4.86-13.54v-26.38c-.02-.43,.13-.85,.42-1.17,.29-.3,.71-.47,1.13-.45h6c.85-.05,1.57,.61,1.62,1.46,0,.05,0,.11,0,.16v26.37c0,3.41,.81,6,2.43,7.71,3.96,3.45,9.85,3.45,13.81,0,1.62-1.72,2.43-4.3,2.43-7.71v-26.37c-.05-.85,.61-1.57,1.46-1.62,.05,0,.11,0,.16,0h6c.42-.02,.84,.15,1.13,.45,.29,.32,.44,.74,.42,1.17v26.37c0,6.05-1.61,10.56-4.82,13.54-3.21,2.98-7.75,4.47-13.62,4.48-5.91,0-10.48-1.49-13.71-4.47Z"/>
    <path class="cls-2" d="M207.42,216.84c-2.47-.95-4.64-2.54-6.29-4.61-1.38-1.79-2.17-3.96-2.26-6.22,0-.35,.14-.68,.38-.94,.26-.28,.62-.43,1-.42h5.89c.42-.02,.83,.1,1.17,.33,.33,.25,.62,.55,.84,.9,.5,1.55,1.55,2.87,2.95,3.7,1.91,1.1,4.1,1.64,6.3,1.54,3.02,0,5.3-.51,6.83-1.52,1.46-.88,2.34-2.48,2.3-4.18,.03-1.09-.39-2.15-1.16-2.92-1.02-.91-2.23-1.59-3.53-2-1.58-.58-3.92-1.29-7-2.11-5.1-1.21-8.84-2.8-11.21-4.79-2.37-1.99-3.58-4.87-3.63-8.64-.04-2.4,.69-4.75,2.08-6.71,1.5-2.07,3.55-3.67,5.92-4.63,2.85-1.18,5.92-1.76,9-1.69,3.2-.08,6.38,.57,9.3,1.88,2.36,1.04,4.43,2.65,6,4.7,1.26,1.61,2.01,3.56,2.17,5.6,0,.35-.14,.69-.39,.94-.25,.28-.62,.44-1,.42h-6.16c-.83,.07-1.61-.4-1.94-1.16-.28-1.48-1.21-2.75-2.53-3.47-3.45-1.83-7.6-1.83-11.05,0-1.32,.87-2.08,2.37-2,3.95-.05,1.06,.31,2.11,1,2.92,.92,.9,2.02,1.58,3.24,2,2.1,.79,4.24,1.45,6.41,2,3.15,.64,6.23,1.62,9.17,2.92,2.01,.88,3.74,2.29,5,4.08,1.15,1.89,1.71,4.08,1.62,6.29,.06,2.62-.74,5.18-2.3,7.29-1.67,2.15-3.91,3.78-6.48,4.69-3.1,1.14-6.38,1.69-9.68,1.63-3.4,.08-6.79-.53-9.96-1.77Z"/>
    <path class="cls-2" d="M250.14,217.48c-.3-.29-.46-.69-.46-1.1v-42.26c-.02-.43,.15-.84,.46-1.13,.3-.28,.69-.43,1.1-.42h6.22c.42-.02,.83,.13,1.13,.42,.28,.31,.43,.71,.41,1.13v42.25c0,.41-.15,.8-.43,1.1-.29,.31-.7,.48-1.13,.46h-6.22c-.41,0-.8-.16-1.08-.45Z"/>
    <path class="cls-2" d="M279.3,214.02c-3.27-3.05-5.01-7.38-5.22-13-.04-1.16-.06-3.06-.06-5.7s0-4.62,.06-5.83c.22-5.53,1.97-9.84,5.25-12.93,3.28-3.09,7.88-4.63,13.8-4.63,3.44-.07,6.85,.62,10,2,2.67,1.16,4.97,3.03,6.65,5.41,1.56,2.27,2.43,4.95,2.49,7.71v.07c0,.34-.15,.66-.42,.87-.26,.23-.59,.36-.94,.36h-6.29c-.42,.03-.83-.1-1.16-.36-.33-.35-.55-.79-.65-1.26-.67-2.67-1.79-4.56-3.37-5.67-1.9-1.18-4.11-1.76-6.35-1.65-6.18,0-9.4,3.46-9.65,10.37-.05,1.16-.07,2.95-.07,5.37s0,4.26,.07,5.51c.25,6.91,3.47,10.37,9.65,10.37,2.23,.1,4.43-.47,6.32-1.65,1.62-1.11,2.75-3,3.4-5.67,.1-.47,.32-.91,.65-1.27,.33-.25,.74-.38,1.16-.35h6.38c.37,0,.73,.13,1,.39,.29,.24,.43,.63,.36,1-.06,2.76-.93,5.44-2.49,7.71-1.68,2.37-3.98,4.25-6.65,5.41-3.15,1.38-6.56,2.07-10,2-6.02,0-10.66-1.53-13.92-4.58Z"/>
  </g>
</svg>