<svg width="231" height="40" viewBox="0 0 231 40" fill="none" xmlns="http://www.w3.org/2000/svg">
<g clip-path="url(#clip0_5_46)">
<path fill-rule="evenodd" clip-rule="evenodd" d="M20.8721 5.88953L12.8126 21.5865C12.2616 22.6547 11.3116 23.4662 10.1684 23.8402C9.02517 24.2143 8.07514 25.0258 7.52412 26.0972L2.37495 36.1328C1.29508 38.2376 3.30281 40.5928 5.54805 39.8605C6.20991 39.645 6.76093 39.1758 7.08077 38.5546L14.5924 23.9258C15.1434 22.8576 16.0934 22.0461 17.2366 21.6721C18.3798 21.298 19.3298 20.4866 19.8809 19.4152L25.5779 8.31128C26.6577 6.20652 24.65 3.85134 22.4048 4.58357C21.7429 4.79911 21.1919 5.26825 20.8721 5.88953ZM35.0497 1.44227C35.3695 0.820987 35.9206 0.351853 36.5824 0.136305H36.5856C38.8308 -0.595924 40.8386 1.75925 39.7587 3.86402L34.1725 14.7492C33.6246 15.8206 32.6714 16.6321 31.5282 17.0061C30.385 17.377 29.435 18.1884 28.884 19.2598L21.2584 34.1105C20.9386 34.7318 20.3875 35.2009 19.7257 35.4164C17.4804 36.1487 15.4727 33.7935 16.5526 31.6887L21.8126 21.4344C22.3604 20.3629 23.3136 19.5515 24.4568 19.1774C25.6 18.8066 26.5501 17.9951 27.1011 16.9237L35.0497 1.44227ZM5.23138 24.7817C4.9147 25.403 4.13567 26.3286 3.47382 26.5441C1.22858 27.2795 -0.779156 24.9212 0.300713 22.8196L6.71026 10.3336C7.0301 9.71551 7.58112 9.24321 8.24298 9.02766C10.4882 8.29226 12.4959 10.6506 11.4161 12.7522L5.23138 24.7817ZM59.0728 31.3369L62.9173 20.661L62.9236 20.6578L66.4356 31.3337H67.0151L72.6488 14.9648C72.8989 14.2167 73.4424 14.1331 74.0902 14.0335L74.115 14.0297V13.3482H69.2128V14.0297C70.9324 14.0836 71.5119 14.3593 71.5119 15.1455C71.5119 15.4024 71.4193 15.6775 71.3161 15.984C71.2971 16.0405 71.2778 16.098 71.2586 16.1566L67.4426 27.4412L63.7248 16.1313C63.7083 16.0764 63.6923 16.024 63.6769 15.9737L63.6763 15.9718L63.6763 15.9716L63.6762 15.9716C63.5713 15.6285 63.4968 15.3851 63.4968 15.1201C63.4968 14.3372 64.0763 14.0836 65.7706 14.0329V13.3513H59.5542V14.0329C60.2382 14.1343 60.8177 14.2326 61.0457 14.9679L62.4866 19.3677L59.5542 27.568L55.5609 16.1313C55.535 16.0342 55.5075 15.9406 55.4809 15.85L55.4808 15.8499C55.4031 15.5856 55.3329 15.3467 55.3329 15.1201C55.3329 14.3372 55.9124 14.0836 57.6066 14.0329V13.3513H51.1622V14.0329C51.8463 14.1343 52.4258 14.2833 52.6538 14.9679L58.468 31.3369H59.0728ZM83.4317 22.7087V23.2412H75.0397C74.8624 27.3398 76.8828 29.6664 79.5112 29.6664C81.3321 29.6664 82.4183 28.8074 83.3018 27.4159L83.6058 27.568C83.001 29.7647 81.2561 31.3623 78.6277 31.3623C75.0397 31.3623 72.9908 28.4492 72.9908 24.9117C72.9908 20.7624 75.4197 17.7003 78.6783 17.7003C81.9369 17.7003 83.4285 19.8748 83.4285 22.7087H83.4317ZM75.1189 22.5058H81.2339C81.2339 20.2299 80.4486 18.5118 78.4788 18.5118C76.5091 18.5118 75.3722 20.2552 75.1189 22.5058ZM89.5467 30.4493C88.2103 30.3764 87.8049 30.1736 87.8049 29.1846V11.3004H87.5009L83.8877 12.5652V12.8441L85.5312 13.7285V29.1846C85.5312 30.1736 85.1259 30.3764 83.7863 30.4493V31.1087H89.5467V30.4493ZM94.2747 29.1846C94.2747 30.1736 94.68 30.3764 96.0164 30.4493V31.1087H90.256V30.4493C91.5956 30.3764 92.0009 30.1736 92.0009 29.1846V13.7285L90.3574 12.8441V12.5652L93.9707 11.3004H94.2747V29.1846ZM104.26 19.1711C105.751 19.1711 106.508 19.9541 106.508 21.8243H106.514V29.1846C106.514 30.1736 106.112 30.3765 104.773 30.4494V31.1087H110.533V30.4494C109.193 30.3765 108.788 30.1736 108.788 29.1846V21.7767C108.788 19.0444 107.702 17.7035 105.377 17.7035C103.43 17.7035 101.967 18.7908 100.776 20.1062L100.877 17.7035H100.573L96.8556 18.9683V19.2472L98.4992 20.1316V29.1878C98.4992 30.1768 98.0938 30.3796 96.7575 30.4525V31.1119H102.518V30.4525C101.178 30.3796 100.773 30.1768 100.773 29.1878V20.7117C101.732 19.878 102.971 19.1711 104.26 19.1711ZM121.167 22.7087V23.2412H112.775C112.598 27.3398 114.618 29.6664 117.246 29.6664C119.067 29.6664 120.154 28.8074 121.037 27.4159L121.341 27.568C120.736 29.7647 118.991 31.3623 116.363 31.3623C112.775 31.3623 110.726 28.4492 110.726 24.9117C110.726 20.7624 113.155 17.7003 116.414 17.7003C119.672 17.7003 121.164 19.8748 121.164 22.7087H121.167ZM112.854 22.5058H118.969C118.969 20.2299 118.184 18.5118 116.214 18.5118C114.244 18.5118 113.107 20.2552 112.854 22.5058ZM122.351 26.6297L122.503 30.1229H122.506C123.441 30.8583 125.033 31.3623 126.753 31.3623C129.533 31.3623 131.351 29.8947 131.351 27.4666C131.351 25.2921 129.837 24.2555 127.412 23.3426C125.163 22.509 124.353 21.8243 124.353 20.5088C124.353 19.2948 125.135 18.4104 126.601 18.4104C128.447 18.4104 129.457 19.8748 129.964 21.8243H130.569V18.7622C129.533 18.1029 128.295 17.7003 126.728 17.7003C124.201 17.7003 122.557 19.1394 122.557 21.2664C122.557 23.3933 123.795 24.3316 126.322 25.3143C128.571 26.2018 129.505 26.8326 129.505 28.3002C129.505 29.8915 128.343 30.6522 126.851 30.6522C124.878 30.6522 123.665 28.931 123.035 26.6297H122.351ZM132.827 30.1229L132.675 26.6297H133.359C133.989 28.931 135.202 30.6522 137.175 30.6522C138.667 30.6522 139.829 29.8915 139.829 28.3002C139.829 26.8326 138.895 26.2018 136.646 25.3143C134.119 24.3316 132.881 23.3933 132.881 21.2664C132.881 19.1394 134.524 17.7003 137.051 17.7003C138.619 17.7003 139.857 18.1029 140.893 18.7622V21.8243H140.288C139.781 19.8748 138.771 18.4104 136.925 18.4104C135.459 18.4104 134.676 19.2948 134.676 20.5088C134.676 21.8243 135.487 22.509 137.735 23.3426C140.161 24.2555 141.675 25.2921 141.675 27.4666C141.675 29.8947 139.857 31.3623 137.077 31.3623C135.357 31.3623 133.764 30.8583 132.83 30.1229H132.827ZM161.103 21.4946H152.23V15.8301C152.23 14.3879 152.584 14.2611 154.453 14.0329V13.3513H147.632V14.0329C149.5 14.2611 149.855 14.3879 149.855 15.8301V28.6299C149.855 30.0722 149.5 30.199 147.632 30.424V31.1087H154.453V30.424C152.584 30.199 152.23 30.0722 152.23 28.6299V22.3568H161.103V28.6299C161.103 30.0722 160.748 30.199 158.88 30.424V31.1087H165.704V30.424C163.833 30.199 163.481 30.0722 163.481 28.6299V15.8301C163.481 14.3879 163.833 14.2611 165.704 14.0329V13.3513H158.88V14.0329C160.748 14.2611 161.103 14.3879 161.103 15.8301V21.4946ZM166.217 24.861C166.217 20.5088 168.871 17.7003 172.234 17.7003C175.772 17.7003 178.099 20.382 178.099 24.2016C178.099 28.5506 175.445 31.3623 172.082 31.3623C168.545 31.3623 166.217 28.7313 166.217 24.861ZM175.696 24.8356C175.696 21.4946 174.559 18.4865 172.108 18.4865C169.859 18.4865 168.621 20.8131 168.621 24.227C168.621 27.6409 169.758 30.5762 172.209 30.5762C174.457 30.5762 175.696 28.2495 175.696 24.8356ZM184.129 30.4493C182.789 30.3764 182.384 30.1736 182.384 29.1846V11.3004H182.08L178.466 12.5652V12.8441L180.11 13.7285V29.1846C180.11 30.1736 179.708 30.3764 178.368 30.4493V31.1087H184.129V30.4493ZM191.878 12.8441V12.8427L193.518 13.7254V18.7115C192.859 18.1029 191.849 17.7003 190.56 17.7003C187.048 17.7003 184.395 20.5563 184.395 25.1621C184.395 28.7281 186.342 31.3591 189.477 31.3591C191.298 31.3591 192.511 30.3479 193.521 29.0324L193.42 31.3591H193.8L197.641 30.4208V29.8915L196.983 29.8154C195.846 29.6886 195.795 29.5142 195.795 28.6521V11.3004H195.491L191.878 12.5652V12.8427L191.875 12.841L191.878 12.8441ZM186.545 24.1509C186.545 27.2351 187.932 29.6918 190.614 29.6918C191.827 29.6918 192.787 29.2607 193.521 28.4492V22.1254C193.521 19.8241 192.283 18.4072 190.564 18.4072C188.112 18.4072 186.548 20.7085 186.548 24.1477L186.545 24.1509ZM204.108 30.4494C202.768 30.3765 202.363 30.1736 202.363 29.1846V17.7004H202.059L198.446 18.9651V19.2441L200.089 20.1284V29.1846C200.089 30.1736 199.684 30.3765 198.347 30.4494V31.1087H204.108V30.4494ZM201.099 12.4892C200.216 12.4892 199.506 13.2246 199.506 14.1089C199.506 14.9933 200.19 15.7287 201.099 15.7287C202.008 15.7287 202.718 14.9933 202.718 14.1089C202.718 13.2246 201.983 12.4892 201.099 12.4892ZM214.599 21.8243C214.599 19.9541 213.839 19.1711 212.351 19.1711C211.062 19.1711 209.824 19.878 208.864 20.7117V29.1878C208.864 30.1768 209.266 30.3796 210.606 30.4525V31.1119H204.846V30.4525C206.185 30.3796 206.591 30.1768 206.591 29.1878V20.1316L204.947 19.2472V18.9683L208.662 17.7035H208.966L208.867 20.1062C210.055 18.7908 211.518 17.7035 213.466 17.7035C215.79 17.7035 216.879 19.0444 216.879 21.7767V29.1846C216.879 30.1736 217.285 30.3765 218.624 30.4494V31.1087H212.861V30.4494C214.2 30.3765 214.606 30.1736 214.606 29.1846V21.8243H214.599ZM221.094 27.717C221.094 27.1591 221.5 26.4998 222.105 25.8943L222.108 25.8912C222.789 26.1479 223.574 26.2747 224.381 26.2747C227.289 26.2747 229.208 24.601 229.208 22.0208C229.208 20.756 228.425 19.5927 227.589 19.0634L229.588 19.1648H230.522V17.9729L226.478 18.0712C225.87 17.8715 225.236 17.694 224.378 17.694C221.601 17.694 219.476 19.3613 219.476 22.1444C219.476 23.8656 220.363 25.0512 221.674 25.7105C220.667 26.4459 219.501 27.3556 219.501 28.6457C219.501 29.6601 220.008 30.3669 220.942 30.722C219.625 31.2799 218.539 32.1421 218.539 33.4797C218.539 35.5306 220.613 36.7193 223.973 36.7193C227.764 36.7193 231 34.9473 231 31.8631C231 29.6886 229.41 28.7028 227.007 28.7028H222.13C221.449 28.7028 221.094 28.3763 221.094 27.717ZM220.486 32.8774C220.486 32.0438 220.714 31.3591 221.221 30.8297V30.8329H226.706C228.273 30.8329 229.258 31.3116 229.258 32.7538C229.258 34.903 226.931 35.9649 224.229 35.9649C221.851 35.9649 220.486 34.773 220.486 32.8774ZM224.277 18.3565C226.073 18.3565 226.956 20.1252 226.956 22.2522C226.956 24.1002 226.149 25.6439 224.505 25.6439C222.684 25.6439 221.801 23.872 221.801 21.7482C221.801 19.9002 222.611 18.3565 224.277 18.3565Z" fill="#1D1D1B"/>
</g>
<defs>
<clipPath id="clip0_5_46">
<rect width="231" height="40" fill="white"/>
</clipPath>
</defs>
</svg>
